<svg width="76" height="76" viewBox="0 0 76 76" fill="none" xmlns="http://www.w3.org/2000/svg">
<circle cx="15" cy="61" r="15" fill="#3CDBC0" fill-opacity="0.5"/>
<path fill-rule="evenodd" clip-rule="evenodd" d="M65.9655 63.9964H10.7068C9.85778 63.9964 9.17188 63.3105 9.17188 62.4615C9.17188 61.6133 9.85778 60.9265 10.7068 60.9265H65.9655C66.8145 60.9265 67.5004 61.6133 67.5004 62.4615C67.5004 63.3105 66.8145 63.9964 65.9655 63.9964Z" fill="#0A3B70"/>
<path fill-rule="evenodd" clip-rule="evenodd" d="M38.3357 56.979C37.4867 56.979 36.8008 56.2922 36.8008 55.444V23.815C36.8008 22.9668 37.4867 22.28 38.3357 22.28C39.1848 22.28 39.8707 22.9668 39.8707 23.815V55.444C39.8707 56.2922 39.1848 56.979 38.3357 56.979Z" fill="#0A3B70"/>
<path fill-rule="evenodd" clip-rule="evenodd" d="M38.3358 53.784C34.8861 53.784 31.7741 51.9271 30.4031 49.0519C30.0391 48.2871 30.3637 47.3713 31.1303 47.0056C31.8978 46.6433 32.8117 46.9679 33.1766 47.7336C34.0388 49.544 36.0632 50.7141 38.3358 50.7141C39.1849 50.7141 39.8708 51.4008 39.8708 52.249C39.8708 53.0981 39.1849 53.784 38.3358 53.784Z" fill="#0A3B70"/>
<path fill-rule="evenodd" clip-rule="evenodd" d="M38.336 53.7838C37.487 53.7838 36.8011 53.0979 36.8011 52.2488C36.8011 51.4006 37.487 50.7138 38.336 50.7138C41.406 50.7138 43.9049 48.571 43.9049 45.9362C43.9049 43.3004 41.406 41.1559 38.336 41.1559C33.5724 41.1559 29.6973 37.6342 29.6973 33.3065C29.6973 28.9797 33.5724 25.458 38.336 25.458C39.1851 25.458 39.871 26.1439 39.871 26.993C39.871 27.8411 39.1851 28.5279 38.336 28.5279C35.2661 28.5279 32.7672 30.6707 32.7672 33.3065C32.7672 35.9414 35.2661 38.0859 38.336 38.0859C43.0997 38.0859 46.9748 41.6067 46.9748 45.9362C46.9748 50.263 43.0997 53.7838 38.336 53.7838Z" fill="#0A3B70"/>
<path fill-rule="evenodd" clip-rule="evenodd" d="M44.0423 31.0788C43.6029 31.0788 43.1669 30.8911 42.8643 30.5289C41.8153 29.2755 40.1224 28.5282 38.3357 28.5282C37.4867 28.5282 36.8008 27.8414 36.8008 26.9932C36.8008 26.1442 37.4867 25.4583 38.3357 25.4583C41.061 25.4583 43.5704 26.588 45.2176 28.5598C45.7615 29.2097 45.6764 30.1789 45.0255 30.721C44.7379 30.9622 44.3896 31.0788 44.0423 31.0788Z" fill="#0A3B70"/>
<path fill-rule="evenodd" clip-rule="evenodd" d="M50.9774 63.9984C50.438 63.9984 49.9144 63.7133 49.6346 63.209C49.2223 62.4661 49.4907 61.5319 50.2301 61.1223C58.0435 56.7885 62.8958 48.5532 62.8958 39.6293C62.8958 26.0874 51.8774 15.0699 38.3364 15.0699C24.7945 15.0699 13.777 26.0874 13.777 39.6293C13.777 48.5532 18.6292 56.7885 26.4417 61.1223C27.182 61.5319 27.4504 62.4661 27.0382 63.209C26.6277 63.9501 25.697 64.2203 24.9515 63.8045C16.1654 58.9321 10.707 49.668 10.707 39.6293C10.707 24.3955 23.1025 12 38.3364 12C53.5702 12 65.9657 24.3955 65.9657 39.6293C65.9657 49.668 60.5074 58.9321 51.7212 63.8045C51.4835 63.937 51.2292 63.9984 50.9774 63.9984Z" fill="#0A3B70"/>
</svg>
