<svg width="76" height="76" viewBox="0 0 76 76" fill="none" xmlns="http://www.w3.org/2000/svg">
<g clip-path="url(#clip0_662_6832)">
<rect opacity="0.5" x="41" y="17.6777" width="25" height="25" transform="rotate(-45 41 17.6777)" fill="#DFFEAE"/>
<path fill-rule="evenodd" clip-rule="evenodd" d="M38.1511 53.7628C37.3968 53.7628 36.7871 53.1531 36.7871 52.3988V24.2937C36.7871 23.5394 37.3968 22.9297 38.1511 22.9297C38.9054 22.9297 39.5151 23.5394 39.5151 24.2937V52.3988C39.5151 53.1531 38.9054 53.7628 38.1511 53.7628Z" fill="#0A3B70"/>
<path fill-rule="evenodd" clip-rule="evenodd" d="M38.1522 50.9239C35.0873 50.9239 32.3211 49.2734 31.1031 46.7187C30.7798 46.0394 31.069 45.2251 31.7496 44.9005C32.4302 44.5799 33.2418 44.8677 33.5678 45.547C34.333 47.1552 36.1335 48.1959 38.1522 48.1959C38.9065 48.1959 39.5162 48.8056 39.5162 49.5599C39.5162 50.3142 38.9065 50.9239 38.1522 50.9239Z" fill="#0A3B70"/>
<path fill-rule="evenodd" clip-rule="evenodd" d="M38.1512 50.9241C37.3969 50.9241 36.7872 50.3144 36.7872 49.5601C36.7872 48.8058 37.3969 48.1961 38.1512 48.1961C40.8792 48.1961 43.0997 46.292 43.0997 43.95C43.0997 41.608 40.8792 39.7011 38.1512 39.7011C33.9173 39.7011 30.4746 36.5735 30.4746 32.727C30.4746 28.8819 33.9173 25.7529 38.1512 25.7529C38.9055 25.7529 39.5152 26.3626 39.5152 27.1169C39.5152 27.8712 38.9055 28.4809 38.1512 28.4809C35.4232 28.4809 33.2026 30.3851 33.2026 32.727C33.2026 35.069 35.4232 36.9731 38.1512 36.9731C42.385 36.9731 45.8277 40.1021 45.8277 43.95C45.8277 47.7951 42.385 50.9241 38.1512 50.9241Z" fill="#0A3B70"/>
<path fill-rule="evenodd" clip-rule="evenodd" d="M43.2224 30.7479C42.8323 30.7479 42.445 30.5815 42.1749 30.2596C41.2433 29.1452 39.7388 28.4809 38.1511 28.4809C37.3968 28.4809 36.7871 27.8712 36.7871 27.1169C36.7871 26.3626 37.3968 25.7529 38.1511 25.7529C40.5736 25.7529 42.8023 26.7568 44.2673 28.5082C44.7501 29.0865 44.6737 29.9472 44.0968 30.4301C43.8403 30.6442 43.5307 30.7479 43.2224 30.7479Z" fill="#0A3B70"/>
<mask id="mask0_662_6832" style="mask-type:alpha" maskUnits="userSpaceOnUse" x="9" y="17" width="12" height="42">
<path d="M9.50781 17.6929H20.2251V59.0001H9.50781V17.6929Z" fill="white"/>
</mask>
<g mask="url(#mask0_662_6832)">
<path fill-rule="evenodd" clip-rule="evenodd" d="M18.8607 59.0002C18.5115 59.0002 18.1624 58.8665 17.8964 58.6005C12.4868 53.1909 9.50781 45.9986 9.50781 38.3452C9.50781 30.6946 12.4868 23.5022 17.8964 18.0926C18.4297 17.5593 19.2917 17.5593 19.8251 18.0926C20.3584 18.6246 20.3584 19.488 19.8251 20.0213C14.9311 24.9167 12.2358 31.4229 12.2358 38.3452C12.2358 45.2688 14.9311 51.7765 19.8251 56.6718C20.3584 57.2052 20.3584 58.0672 19.8251 58.6005C19.5591 58.8665 19.2099 59.0002 18.8607 59.0002Z" fill="#0A3B70"/>
</g>
<mask id="mask1_662_6832" style="mask-type:alpha" maskUnits="userSpaceOnUse" x="56" y="17" width="11" height="42">
<path d="M56.0762 17.6929H66.7948V59.0001H56.0762V17.6929Z" fill="white"/>
</mask>
<g mask="url(#mask1_662_6832)">
<path fill-rule="evenodd" clip-rule="evenodd" d="M57.4405 59.0002C57.0913 59.0002 56.7421 58.8665 56.4762 58.6005C55.9428 58.0672 55.9428 57.2052 56.4762 56.6718C61.3715 51.7778 64.0668 45.2702 64.0668 38.3452C64.0668 31.4229 61.3715 24.9153 56.4762 20.0213C55.9428 19.488 55.9428 18.6246 56.4762 18.0926C57.0095 17.5593 57.8715 17.5593 58.4049 18.0926C63.8158 23.5022 66.7948 30.6946 66.7948 38.3452C66.7948 45.9986 63.8158 53.1909 58.4049 58.6005C58.1389 58.8665 57.7897 59.0002 57.4405 59.0002Z" fill="#0A3B70"/>
</g>
<path fill-rule="evenodd" clip-rule="evenodd" d="M24.6491 53.2123C24.3 53.2123 23.9508 53.0786 23.6848 52.8126C19.8206 48.9498 17.6914 43.8116 17.6914 38.3461C17.6914 32.8792 19.8206 27.741 23.6848 23.8782C24.2181 23.3463 25.0802 23.3463 25.6135 23.8782C26.1468 24.4115 26.1468 25.2749 25.6135 25.8069C22.2649 29.1555 20.4194 33.6076 20.4194 38.3461C20.4194 43.0833 22.2649 47.5353 25.6135 50.8839C26.1468 51.4173 26.1468 52.2793 25.6135 52.8126C25.3475 53.0786 24.9983 53.2123 24.6491 53.2123Z" fill="#0A3B70"/>
<path fill-rule="evenodd" clip-rule="evenodd" d="M51.6534 53.2123C51.3042 53.2123 50.955 53.0786 50.6891 52.8126C50.1557 52.2793 50.1557 51.4173 50.6891 50.8839C54.0377 47.5353 55.8831 43.0819 55.8831 38.3461C55.8831 33.6089 54.0377 29.1555 50.6891 25.8069C50.1557 25.2749 50.1557 24.4115 50.6891 23.8782C51.2224 23.3463 52.0844 23.3463 52.6177 23.8782C56.4819 27.7424 58.6111 32.8806 58.6111 38.3461C58.6111 43.8103 56.4819 48.9484 52.6177 52.8126C52.3518 53.0786 52.0026 53.2123 51.6534 53.2123Z" fill="#0A3B70"/>
</g>
<defs>
<clipPath id="clip0_662_6832">
<rect width="76" height="76" fill="white"/>
</clipPath>
</defs>
</svg>
