<?xml version="1.0" encoding="utf-8"?>
<!-- Generator: Adobe Illustrator 26.0.1, SVG Export Plug-In . SVG Version: 6.00 Build 0)  -->
<svg version="1.1" id="Layer_1" xmlns="http://www.w3.org/2000/svg" xmlns:xlink="http://www.w3.org/1999/xlink" x="0px" y="0px"
	 viewBox="0 0 76 76" style="enable-background:new 0 0 76 76;" xml:space="preserve">
<style type="text/css">
	.st0{fill:#F6C3C3;}
	.st1{fill:#FFFFFF;filter:url(#Adobe_OpacityMaskFilter);}
	.st2{mask:url(#mask0_662_5568_00000025426493385938991060000002754721007760765056_);}
	.st3{fill-rule:evenodd;clip-rule:evenodd;fill:#0A3B70;}
</style>
<circle class="st0" cx="61" cy="15" r="15"/>
<defs>
	<filter id="Adobe_OpacityMaskFilter" filterUnits="userSpaceOnUse" x="10" y="13" width="56.4" height="50.5">
		<feColorMatrix  type="matrix" values="1 0 0 0 0  0 1 0 0 0  0 0 1 0 0  0 0 0 1 0"/>
	</filter>
</defs>
<mask maskUnits="userSpaceOnUse" x="10" y="13" width="56.4" height="50.5" id="mask0_662_5568_00000025426493385938991060000002754721007760765056_">
	<path class="st1" d="M10,13h56.4v50.5H10V13z"/>
</mask>
<g class="st2">
	<path class="st3" d="M26.2,16C18.8,16,13,21.6,13,28.7c0,9.1,8.9,16.9,22.3,28.7l2.9,2.6l2.9-2.5c13.5-11.9,22.4-19.7,22.4-28.8
		c0-7.2-5.8-12.8-13.2-12.8c-4.1,0-8.2,1.8-10.9,4.9c-0.6,0.6-1.7,0.6-2.2,0C34.4,17.8,30.3,16,26.2,16z M38.2,63.5
		c-0.4,0-0.7-0.1-1-0.4l-3.9-3.4C19.3,47.3,10,39.2,10,28.7C10,19.9,17.1,13,26.2,13c4.4,0,8.8,1.8,12,4.8c3.2-3,7.6-4.8,12-4.8
		c9.1,0,16.2,6.9,16.2,15.7c0,10.4-9.3,18.6-23.3,30.9l-4,3.5C38.9,63.4,38.6,63.5,38.2,63.5z"/>
</g>
<path class="st3" d="M17.4,30.2c-0.8,0-1.5-0.7-1.5-1.5c0-5.5,4.5-9.8,10.2-9.8c0.8,0,1.6,0.1,2.4,0.3c0.8,0.2,1.3,1,1.1,1.8
	c-0.2,0.8-1,1.3-1.8,1.1c-0.6-0.1-1.2-0.2-1.8-0.2c-4.1,0-7.3,3-7.3,6.8C18.9,29.6,18.2,30.2,17.4,30.2z"/>
</svg>
