<?xml version="1.0" encoding="utf-8"?>
<!-- Generator: Adobe Illustrator 26.0.1, SVG Export Plug-In . SVG Version: 6.00 Build 0)  -->
<svg version="1.1" id="Layer_1" xmlns="http://www.w3.org/2000/svg" xmlns:xlink="http://www.w3.org/1999/xlink" x="0px" y="0px"
	 viewBox="0 0 76 76" style="enable-background:new 0 0 76 76;" xml:space="preserve">
<style type="text/css">
	.st0{opacity:0.5;fill:#A8EFCF;enable-background:new    ;}
	.st1{fill-rule:evenodd;clip-rule:evenodd;fill:#0A3B70;}
	.st2{fill:none;stroke:#0A3B70;stroke-width:3;stroke-linecap:round;stroke-miterlimit:10;}
</style>
<path class="st0" d="M60.5,49l15.2,26.2H45.3L60.5,49z"/>
<path class="st1" d="M12.7,57.3h51.1V19.7H12.7V57.3z M65.1,60H11.3c-0.7,0-1.3-0.6-1.3-1.3V18.3c0-0.7,0.6-1.3,1.3-1.3h53.8
	c0.7,0,1.3,0.6,1.3,1.3v40.3C66.4,59.4,65.8,60,65.1,60z"/>
<path class="st1" d="M65.1,31.8H11.3c-0.7,0-1.3-0.6-1.3-1.3c0-0.7,0.6-1.3,1.3-1.3h53.8c0.7,0,1.3,0.6,1.3,1.3
	C66.4,31.2,65.8,31.8,65.1,31.8z"/>
<path class="st1" d="M50.3,60c-0.7,0-1.3-0.6-1.3-1.3V30.4c0-0.7,0.6-1.3,1.3-1.3s1.3,0.6,1.3,1.3v28.2C51.7,59.4,51.1,60,50.3,60z"
	/>
<line class="st2" x1="21.4" y1="52.9" x2="21.4" y2="40.5"/>
<line class="st2" x1="27.7" y1="52.9" x2="27.7" y2="36.1"/>
<line class="st2" x1="34" y1="52.9" x2="34" y2="44.8"/>
<line class="st2" x1="40.2" y1="52.9" x2="40.2" y2="40.5"/>
</svg>
