<?xml version="1.0" encoding="utf-8"?>
<!-- Generator: Adobe Illustrator 26.0.1, SVG Export Plug-In . SVG Version: 6.00 Build 0)  -->
<svg version="1.1" id="Layer_1" xmlns="http://www.w3.org/2000/svg" xmlns:xlink="http://www.w3.org/1999/xlink" x="0px" y="0px"
	 viewBox="0 0 76 76" style="enable-background:new 0 0 76 76;" xml:space="preserve">
<style type="text/css">
	.st0{clip-path:url(#SVGID_00000096781941712065107980000006203664837233826433_);}
	.st1{fill:#D3F6E6;}
	.st2{fill-rule:evenodd;clip-rule:evenodd;fill:#0A3B70;}
	.st3{fill:#FFFFFF;filter:url(#Adobe_OpacityMaskFilter);}
	.st4{mask:url(#mask0_662_5673_00000011729027178899732520000008274117305435303083_);}
</style>
<g>
	<defs>
		<rect id="SVGID_1_" width="76" height="76"/>
	</defs>
	<clipPath id="SVGID_00000104703895990504412300000018207405923179321009_">
		<use xlink:href="#SVGID_1_"  style="overflow:visible;"/>
	</clipPath>
	<g style="clip-path:url(#SVGID_00000104703895990504412300000018207405923179321009_);">
		<polygon class="st1" points="11.8,49.2 26.9,75.4 42.1,49.2 		"/>
		<path class="st2" d="M32.7,27.5c0,1.7-1.4,3.1-3.1,3.1c-1.7,0-3.1-1.4-3.1-3.1c0-1.7,1.4-3.1,3.1-3.1
			C31.3,24.4,32.7,25.8,32.7,27.5z"/>
		<path class="st2" d="M41.4,48.5c0,1.7-1.4,3.1-3.1,3.1c-1.7,0-3.1-1.4-3.1-3.1c0-1.7,1.4-3.1,3.1-3.1C40,45.4,41.4,46.8,41.4,48.5
			z"/>
		<path class="st2" d="M47.5,36.2c0,1.7-1.4,3.1-3.1,3.1c-1.7,0-3.1-1.4-3.1-3.1c0-1.7,1.4-3.1,3.1-3.1
			C46.1,33.1,47.5,34.5,47.5,36.2z"/>
		<path class="st2" d="M15.6,25.3c-0.5,0-1-0.3-1.3-0.7c-0.4-0.7-0.2-1.7,0.5-2.1c7.1-4.3,15.2-6.6,23.5-6.6
			c8.3,0,16.4,2.3,23.5,6.6c0.7,0.4,1,1.4,0.5,2.1c-0.4,0.7-1.4,1-2.1,0.5c-6.6-4-14.2-6.2-21.9-6.2c-7.7,0-15.3,2.1-21.9,6.2
			C16.1,25.2,15.9,25.3,15.6,25.3z"/>
		<defs>
			<filter id="Adobe_OpacityMaskFilter" filterUnits="userSpaceOnUse" x="10.6" y="8.5" width="55.4" height="58.5">
				<feColorMatrix  type="matrix" values="1 0 0 0 0  0 1 0 0 0  0 0 1 0 0  0 0 0 1 0"/>
			</filter>
		</defs>
		
			<mask maskUnits="userSpaceOnUse" x="10.6" y="8.5" width="55.4" height="58.5" id="mask0_662_5673_00000011729027178899732520000008274117305435303083_">
			<path class="st3" d="M10.6,8.5H66V67H10.6V8.5z"/>
		</mask>
		<g class="st4">
			<path class="st2" d="M14.2,17.9l24.1,44.3l24.1-44.3c-7.3-4.2-15.6-6.3-24.1-6.3C29.8,11.6,21.5,13.8,14.2,17.9z M38.3,67
				c-0.6,0-1.1-0.3-1.4-0.8L10.8,18.1c-0.4-0.7-0.1-1.6,0.6-2.1c8.1-4.9,17.5-7.5,27-7.5c9.5,0,18.8,2.6,27,7.5
				c0.7,0.4,0.9,1.3,0.6,2.1L39.6,66.2C39.4,66.7,38.9,67,38.3,67z"/>
		</g>
	</g>
</g>
</svg>
