<svg width="77" height="77" viewBox="0 0 77 77" fill="none" xmlns="http://www.w3.org/2000/svg">
<circle opacity="0.5" cx="15" cy="61" r="15" fill="#74CAF4"/>
<path d="M11.0371 11H63.7859C64.9018 12.0181 64.767 13.3546 64.7657 14.6756C64.7553 22.7812 64.7553 30.8863 64.7657 38.9911C64.7854 39.2206 64.7824 39.4516 64.7566 39.6806C64.5207 40.8482 64.2265 41.3947 62.9422 41.3985C62.1036 41.3985 61.2651 41.4282 60.4278 41.3985C59.6295 41.3676 59.3197 41.6408 59.3275 42.494C59.3703 46.5459 59.2783 50.6004 59.3729 54.6511C59.4273 57.0456 58.8544 59.1025 57.2512 60.9403C55.3072 63.179 52.8447 64.6778 49.9766 64.7178C44.449 64.8054 38.8942 65.2333 33.3873 64.451C32.0912 64.268 30.746 63.8646 29.6417 63.2021C28.4247 62.4727 27.4164 61.3708 26.3913 60.3578C23.2955 57.2982 20.2204 54.2176 17.1661 51.1159C15.8519 49.7885 15.87 48.1015 17.1661 46.7869C17.6287 46.3165 18.0824 45.8371 18.5697 45.3925C20.0083 44.0766 21.5881 43.2093 23.6242 43.9323C24.3319 44.1823 25.0317 44.4478 25.904 44.7738C25.904 43.9 25.8379 43.1835 25.9208 42.485C26.0297 41.5609 25.6175 41.3831 24.792 41.3895C20.6589 41.4191 16.5258 41.4037 12.3915 41.4024C10.3178 41.4024 10.3087 40.8302 10.3178 39.4009C10.3437 30.864 10.332 22.3284 10.3282 13.7915C10.3165 12.7927 10.1623 11.7655 11.0371 11ZM13.1108 13.7361C13.0519 14.0673 13.0121 14.4017 12.9915 14.7375C12.9846 22.4135 12.9811 30.0903 12.9811 37.768C12.9811 38.4769 13.208 38.7733 13.9908 38.7655C17.6041 38.7269 21.2183 38.7269 24.8334 38.7655C25.6914 38.7771 25.9169 38.4846 25.9104 37.6791C25.8793 33.9133 25.9752 30.1449 25.8728 26.3803C25.7886 23.3285 28.3535 20.5808 31.8139 20.9997C33.9562 21.2574 36.1854 23.2202 36.1997 25.5207C36.2139 27.5621 36.2269 29.6036 36.2204 31.645C36.2204 32.2533 36.4071 32.524 37.0499 32.2894C37.2365 32.2224 37.4504 32.2327 37.6448 32.1824C39.6938 31.6515 41.3735 32.3113 42.7369 33.8205C43.1983 34.336 43.5314 34.4301 44.1898 34.1105C46.5991 32.9415 49.6694 33.6813 51.0186 36.1996C51.1767 36.4934 51.3685 36.7679 51.537 37.0489C53.6975 36.0011 55.7958 35.9599 57.5156 37.634C58.498 38.5916 59.4869 38.8184 60.7324 38.7565C61.9779 38.6947 62.0284 38.6869 62.0284 37.4806C62.0284 29.9773 62.0284 22.4732 62.0284 14.9682C62.0284 13.7348 62.0284 13.7335 60.7739 13.7335H13.1108V13.7361ZM28.6179 49.1995C28.1902 49.0397 27.9206 48.9572 27.6666 48.84C26.5442 48.3244 25.427 47.7922 24.3046 47.2715C21.9536 46.1825 21.8733 46.1979 20.0148 47.9584L19.8268 48.1376C19.0207 48.9353 19.0362 49.0191 19.8644 49.8478C23.0319 53.013 26.1826 56.1937 29.3579 59.3513C29.866 59.8835 30.4375 60.3522 31.0596 60.747C32.6693 61.7084 34.4941 62.001 36.3241 62.0358C40.2537 62.1002 44.1859 62.0358 48.1181 62.0616C49.9313 62.091 51.7145 61.5987 53.253 60.6439C55.3759 59.3229 56.681 57.5779 56.6019 54.874C56.4723 50.5089 56.5514 46.1374 56.576 41.7684C56.5851 40.1497 55.7349 39.5362 54.457 39.1908C53.52 38.9331 52.3833 39.7527 51.9595 40.9642C51.7547 41.5429 51.432 41.8109 50.8151 41.7581C50.4396 41.7368 50.0631 41.7368 49.6876 41.7581C49.1316 41.7748 48.9099 41.5003 48.9203 40.9681C48.9551 40.25 48.949 39.5306 48.9022 38.8132C48.7557 37.2873 48.1103 36.7512 46.8752 36.4019C45.9446 36.1442 44.7056 36.8388 44.3336 37.8685C44.1172 38.464 44.1535 39.1638 44.147 39.8172C44.1276 41.896 44.1405 41.8792 42.0332 41.762C41.402 41.7259 41.0935 41.5042 41.1104 40.816C41.1441 39.5272 41.1428 38.2294 41.0987 36.9368C41.0572 35.733 40.1072 34.9379 38.8034 34.934C37.4996 34.9301 36.5691 35.6982 36.5133 36.9045C36.4693 37.9085 36.4887 38.915 36.4796 39.9203C36.4641 41.5674 36.8464 41.7736 34.625 41.7426C33.4495 41.7272 33.4482 41.7349 33.4469 40.5299C33.4469 35.7296 33.4469 30.9293 33.4469 26.129C33.4469 25.022 32.7108 24.1211 31.6208 23.8221C30.7136 23.5734 29.5225 24 29.1013 24.8866C28.8357 25.4858 28.701 26.1341 28.706 26.7889C28.6788 33.8024 28.6904 40.816 28.6865 47.8295C28.6827 48.2278 28.6464 48.6209 28.6179 49.1995Z" fill="#0A3B70"/>
</svg>
