<?xml version="1.0" encoding="utf-8"?>
<!-- Generator: Adobe Illustrator 26.0.1, SVG Export Plug-In . SVG Version: 6.00 Build 0)  -->
<svg version="1.1" id="Layer_1" xmlns="http://www.w3.org/2000/svg" xmlns:xlink="http://www.w3.org/1999/xlink" x="0px" y="0px"
	 viewBox="0 0 76 76" style="enable-background:new 0 0 76 76;" xml:space="preserve">
<style type="text/css">
	.st0{clip-path:url(#SVGID_00000116230080264775219280000001714702619362611116_);}
	.st1{fill:#F6C3C3;}
	.st2{fill:#FFFFFF;filter:url(#Adobe_OpacityMaskFilter);}
	.st3{mask:url(#mask0_662_5611_00000170263112565307522370000012443155678040690866_);}
	.st4{fill-rule:evenodd;clip-rule:evenodd;fill:#0A3B70;}
</style>
<g>
	<defs>
		<rect id="SVGID_1_" width="76" height="76"/>
	</defs>
	<clipPath id="SVGID_00000005246348991131485670000006081229573761136824_">
		<use xlink:href="#SVGID_1_"  style="overflow:visible;"/>
	</clipPath>
	<g style="clip-path:url(#SVGID_00000005246348991131485670000006081229573761136824_);">
		<rect x="40.2" y="6.2" transform="matrix(0.7071 -0.7071 0.7071 0.7071 1.1716 45.2548)" class="st1" width="30" height="30"/>
		<defs>
			<filter id="Adobe_OpacityMaskFilter" filterUnits="userSpaceOnUse" x="10" y="9" width="56.5" height="58">
				<feColorMatrix  type="matrix" values="1 0 0 0 0  0 1 0 0 0  0 0 1 0 0  0 0 0 1 0"/>
			</filter>
		</defs>
		
			<mask maskUnits="userSpaceOnUse" x="10" y="9" width="56.5" height="58" id="mask0_662_5611_00000170263112565307522370000012443155678040690866_">
			<path class="st2" d="M10,9h56.5v58H10V9z"/>
		</mask>
		<g class="st3">
			<path class="st4" d="M13,64h50.6V16.4H13V64z M65.1,67H11.5c-0.8,0-1.5-0.7-1.5-1.5V14.9c0-0.8,0.7-1.5,1.5-1.5h53.6
				c0.8,0,1.5,0.7,1.5,1.5v50.6C66.5,66.3,65.9,67,65.1,67z"/>
			<path class="st4" d="M13,28.3h50.6V16.4H13V28.3z M65.1,31.3H11.5c-0.8,0-1.5-0.7-1.5-1.5V14.9c0-0.8,0.7-1.5,1.5-1.5h53.6
				c0.8,0,1.5,0.7,1.5,1.5v14.9C66.5,30.6,65.9,31.3,65.1,31.3z"/>
			<path class="st4" d="M53.2,20.9c-0.8,0-1.5-0.7-1.5-1.5v-8.9c0-0.8,0.7-1.5,1.5-1.5c0.8,0,1.5,0.7,1.5,1.5v8.9
				C54.6,20.2,54,20.9,53.2,20.9z"/>
			<path class="st4" d="M23.4,20.9c-0.8,0-1.5-0.7-1.5-1.5v-8.9c0-0.8,0.7-1.5,1.5-1.5c0.8,0,1.5,0.7,1.5,1.5v8.9
				C24.9,20.2,24.2,20.9,23.4,20.9z"/>
			<path class="st4" d="M34.1,55.5c-0.4,0-0.8-0.1-1.1-0.4c-0.6-0.6-0.6-1.5,0-2.1l12.6-12.6c0.6-0.6,1.5-0.6,2.1,0
				c0.6,0.6,0.6,1.5,0,2.1L35.1,55C34.8,55.3,34.4,55.5,34.1,55.5z"/>
			<path class="st4" d="M34.1,55.5c-0.4,0-0.8-0.1-1.1-0.4l-4.2-4.2c-0.6-0.6-0.6-1.5,0-2.1c0.6-0.6,1.5-0.6,2.1,0l4.2,4.2
				c0.6,0.6,0.6,1.5,0,2.1C34.8,55.3,34.4,55.5,34.1,55.5z"/>
		</g>
	</g>
</g>
</svg>
