<svg width="76" height="76" viewBox="0 0 76 76" fill="none" xmlns="http://www.w3.org/2000/svg">
<rect y="46" width="30" height="30" fill="#74CAF4" fill-opacity="0.5"/>
<path fill-rule="evenodd" clip-rule="evenodd" d="M34.0258 23.9962H10.6011C9.76538 23.9962 9.08984 23.3206 9.08984 22.4849C9.08984 21.6492 9.76538 20.9736 10.6011 20.9736H34.0258C34.8616 20.9736 35.5371 21.6492 35.5371 22.4849C35.5371 23.3206 34.8616 23.9962 34.0258 23.9962Z" fill="#0A3B70"/>
<path fill-rule="evenodd" clip-rule="evenodd" d="M65.0063 23.9962H41.5816C40.7459 23.9962 40.0703 23.3206 40.0703 22.4849C40.0703 21.6492 40.7459 20.9736 41.5816 20.9736H65.0063C65.842 20.9736 66.5176 21.6492 66.5176 22.4849C66.5176 23.3206 65.842 23.9962 65.0063 23.9962Z" fill="#0A3B70"/>
<path fill-rule="evenodd" clip-rule="evenodd" d="M57.4506 39.109H10.6011C9.76538 39.109 9.08984 38.4334 9.08984 37.5977C9.08984 36.762 9.76538 36.0864 10.6011 36.0864H57.4506C58.2863 36.0864 58.9618 36.762 58.9618 37.5977C58.9618 38.4334 58.2863 39.109 57.4506 39.109Z" fill="#0A3B70"/>
<path fill-rule="evenodd" clip-rule="evenodd" d="M61.2289 35.3309C59.9791 35.3309 58.962 36.348 58.962 37.5978C58.962 38.8476 59.9791 39.8647 61.2289 39.8647C62.4787 39.8647 63.4958 38.8476 63.4958 37.5978C63.4958 36.348 62.4787 35.3309 61.2289 35.3309ZM61.2289 42.8873C58.3122 42.8873 55.9395 40.5146 55.9395 37.5978C55.9395 34.681 58.3122 32.3083 61.2289 32.3083C64.1457 32.3083 66.5184 34.681 66.5184 37.5978C66.5184 40.5146 64.1457 42.8873 61.2289 42.8873Z" fill="#0A3B70"/>
<path fill-rule="evenodd" clip-rule="evenodd" d="M20.4244 54.2218H10.6011C9.76538 54.2218 9.08984 53.5462 9.08984 52.7105C9.08984 51.8748 9.76538 51.1992 10.6011 51.1992H20.4244C21.2601 51.1992 21.9357 51.8748 21.9357 52.7105C21.9357 53.5462 21.2601 54.2218 20.4244 54.2218Z" fill="#0A3B70"/>
<path fill-rule="evenodd" clip-rule="evenodd" d="M65.0062 54.2218H27.98C27.1443 54.2218 26.4688 53.5462 26.4688 52.7105C26.4688 51.8748 27.1443 51.1992 27.98 51.1992H65.0062C65.8419 51.1992 66.5175 51.8748 66.5175 52.7105C66.5175 53.5462 65.8419 54.2218 65.0062 54.2218Z" fill="#0A3B70"/>
<path fill-rule="evenodd" clip-rule="evenodd" d="M24.2035 50.4434C22.9537 50.4434 21.9366 51.4605 21.9366 52.7104C21.9366 53.9602 22.9537 54.9773 24.2035 54.9773C25.4533 54.9773 26.4704 53.9602 26.4704 52.7104C26.4704 51.4605 25.4533 50.4434 24.2035 50.4434ZM24.2035 57.9998C21.2868 57.9998 18.9141 55.6271 18.9141 52.7104C18.9141 49.7936 21.2868 47.4209 24.2035 47.4209C27.1203 47.4209 29.493 49.7936 29.493 52.7104C29.493 55.6271 27.1203 57.9998 24.2035 57.9998Z" fill="#0A3B70"/>
<path fill-rule="evenodd" clip-rule="evenodd" d="M37.8031 20.2181C36.5533 20.2181 35.5362 21.2352 35.5362 22.485C35.5362 23.7348 36.5533 24.7519 37.8031 24.7519C39.0529 24.7519 40.07 23.7348 40.07 22.485C40.07 21.2352 39.0529 20.2181 37.8031 20.2181ZM37.8031 27.7745C34.8864 27.7745 32.5137 25.4018 32.5137 22.485C32.5137 19.5683 34.8864 17.1956 37.8031 17.1956C40.7199 17.1956 43.0926 19.5683 43.0926 22.485C43.0926 25.4018 40.7199 27.7745 37.8031 27.7745Z" fill="#0A3B70"/>
</svg>
