<?xml version="1.0" encoding="utf-8"?>
<!-- Generator: Adobe Illustrator 26.0.1, SVG Export Plug-In . SVG Version: 6.00 Build 0)  -->
<svg version="1.1" id="Layer_1" xmlns="http://www.w3.org/2000/svg" xmlns:xlink="http://www.w3.org/1999/xlink" x="0px" y="0px"
	 viewBox="0 0 76 76" style="enable-background:new 0 0 76 76;" xml:space="preserve">
<style type="text/css">
	.st0{fill:#F6C3C3;}
	.st1{fill-rule:evenodd;clip-rule:evenodd;fill:#0A3B70;}
</style>
<circle class="st0" cx="61" cy="15" r="15"/>
<path class="st1" d="M17.8,57.8h40v-40h-40V57.8z M59.3,60.9h-43c-0.8,0-1.5-0.7-1.5-1.5v-43c0-0.8,0.7-1.5,1.5-1.5h43
	c0.8,0,1.5,0.7,1.5,1.5v43C60.9,60.2,60.2,60.9,59.3,60.9z"/>
<path class="st1" d="M27,48.6h21.5V27H27V48.6z M50.1,51.6H25.5c-0.8,0-1.5-0.7-1.5-1.5V25.5c0-0.8,0.7-1.5,1.5-1.5h24.6
	c0.8,0,1.5,0.7,1.5,1.5v24.6C51.6,50.9,50.9,51.6,50.1,51.6z"/>
<path class="st1" d="M44,17.8c-0.8,0-1.5-0.7-1.5-1.5v-6.1c0-0.8,0.7-1.5,1.5-1.5c0.8,0,1.5,0.7,1.5,1.5v6.1
	C45.5,17.1,44.8,17.8,44,17.8z"/>
<path class="st1" d="M31.7,17.8c-0.8,0-1.5-0.7-1.5-1.5v-6.1c0-0.8,0.7-1.5,1.5-1.5c0.8,0,1.5,0.7,1.5,1.5v6.1
	C33.2,17.1,32.5,17.8,31.7,17.8z"/>
<path class="st1" d="M44,67c-0.8,0-1.5-0.7-1.5-1.5v-6.1c0-0.8,0.7-1.5,1.5-1.5c0.8,0,1.5,0.7,1.5,1.5v6.1C45.5,66.3,44.8,67,44,67z
	"/>
<path class="st1" d="M31.7,67c-0.8,0-1.5-0.7-1.5-1.5v-6.1c0-0.8,0.7-1.5,1.5-1.5c0.8,0,1.5,0.7,1.5,1.5v6.1
	C33.2,66.3,32.5,67,31.7,67z"/>
<path class="st1" d="M65.5,45.5h-6.1c-0.8,0-1.5-0.7-1.5-1.5c0-0.8,0.7-1.5,1.5-1.5h6.1c0.8,0,1.5,0.7,1.5,1.5
	C67,44.8,66.3,45.5,65.5,45.5z"/>
<path class="st1" d="M65.5,33.2h-6.1c-0.8,0-1.5-0.7-1.5-1.5c0-0.8,0.7-1.5,1.5-1.5h6.1c0.8,0,1.5,0.7,1.5,1.5
	C67,32.5,66.3,33.2,65.5,33.2z"/>
<path class="st1" d="M16.3,45.5h-6.1c-0.8,0-1.5-0.7-1.5-1.5c0-0.8,0.7-1.5,1.5-1.5h6.1c0.8,0,1.5,0.7,1.5,1.5
	C17.8,44.8,17.1,45.5,16.3,45.5z"/>
<path class="st1" d="M16.3,33.2h-6.1c-0.8,0-1.5-0.7-1.5-1.5c0-0.8,0.7-1.5,1.5-1.5h6.1c0.8,0,1.5,0.7,1.5,1.5
	C17.8,32.5,17.1,33.2,16.3,33.2z"/>
</svg>
