<svg width="76" height="76" viewBox="0 0 76 76" fill="none" xmlns="http://www.w3.org/2000/svg">
<circle cx="61" cy="15" r="15" fill="#FD8282" fill-opacity="0.5"/>
<path fill-rule="evenodd" clip-rule="evenodd" d="M57.4083 19.6845H18.4873C17.6432 19.6845 16.9609 19.0022 16.9609 18.1582C16.9609 17.3141 17.6432 16.6318 18.4873 16.6318H57.4083C58.2524 16.6318 58.9346 17.3141 58.9346 18.1582C58.9346 19.0022 58.2524 19.6845 57.4083 19.6845Z" fill="#0A3B70"/>
<mask id="mask0_662_6943" style="mask-type:alpha" maskUnits="userSpaceOnUse" x="12" y="9" width="52" height="58">
<path d="M12 9H63.8946V67H12V9Z" fill="white"/>
</mask>
<g mask="url(#mask0_662_6943)">
<path fill-rule="evenodd" clip-rule="evenodd" d="M34.8948 63.9474H41.0001V41.0526C41.0001 40.7581 41.0855 40.4681 41.2458 40.2208L59.5555 12.0526H16.3394L34.649 40.2208C34.8093 40.4681 34.8948 40.7581 34.8948 41.0526V63.9474ZM42.5264 67H33.3685C32.5244 67 31.8422 66.3177 31.8422 65.4737V41.506L12.2458 11.3582C11.9421 10.8881 11.9176 10.2913 12.1847 9.79826C12.4518 9.30679 12.9662 9 13.5264 9H62.3685C62.9286 9 63.443 9.30679 63.7101 9.79826C63.9772 10.2913 63.9528 10.8881 63.6491 11.3582L44.0527 41.506V65.4737C44.0527 66.3177 43.3704 67 42.5264 67Z" fill="#0A3B70"/>
</g>
</svg>
