<?xml version="1.0" encoding="utf-8"?>
<!-- Generator: Adobe Illustrator 26.0.1, SVG Export Plug-In . SVG Version: 6.00 Build 0)  -->
<svg version="1.1" id="Layer_1" xmlns="http://www.w3.org/2000/svg" xmlns:xlink="http://www.w3.org/1999/xlink" x="0px" y="0px"
	 viewBox="0 0 76 76" style="enable-background:new 0 0 76 76;" xml:space="preserve">
<style type="text/css">
	.st0{opacity:0.5;fill:#D1F681;enable-background:new    ;}
	.st1{fill:#0A3B70;}
	.st2{fill:#FFFFFF;stroke:#0A3B70;stroke-width:3;stroke-miterlimit:10;}
</style>
<circle class="st0" cx="15" cy="61" r="15"/>
<path class="st1" d="M55.2,8c-1.6,0-3.2,0.5-4.5,1.4c-1.3,0.9-2.4,2.2-3,3.6c-0.6,1.5-0.8,3.1-0.5,4.7c0.3,1.6,1.1,3,2.2,4.1
	c1.1,1.1,2.6,1.9,4.1,2.2c1.6,0.3,3.2,0.2,4.7-0.5c1.5-0.6,2.7-1.7,3.6-3c0.9-1.3,1.4-2.9,1.4-4.5c0-2.1-0.9-4.2-2.4-5.7
	C59.4,8.9,57.3,8,55.2,8L55.2,8z M55.2,21.1c-1,0-2-0.3-2.8-0.8c-0.8-0.5-1.5-1.3-1.8-2.2c-0.4-0.9-0.5-1.9-0.3-2.9
	c0.2-1,0.7-1.9,1.4-2.6s1.6-1.2,2.6-1.4c1-0.2,2-0.1,2.9,0.3c0.9,0.4,1.7,1,2.2,1.8c0.5,0.8,0.8,1.8,0.8,2.8c0,1.3-0.5,2.6-1.5,3.5
	C57.8,20.6,56.5,21.1,55.2,21.1z"/>
<path class="st1" d="M57.6,24.2h-4.8c-1.4,0-2.7,0.3-3.9,0.9c-1.2,0.6-2.3,1.4-3.2,2.4c-1.4,1.6-2.2,3.6-2.4,5.7c0,0.2,0,0.3,0,0.5
	v2.9c1.4,0.7,2.5,1.9,3.1,3.3v-6.1c0-1.7,0.7-3.3,1.9-4.5c1.2-1.2,2.8-1.9,4.5-1.9h4.8c1.7,0,3.3,0.7,4.5,1.9
	c1.2,1.2,1.9,2.8,1.9,4.5v22.6H46.9v3.1h20.2V33.7c0-2.5-1-4.9-2.8-6.7C62.5,25.2,60.1,24.2,57.6,24.2z"/>
<path class="st1" d="M20.9,8c-1.6,0-3.2,0.5-4.5,1.4c-1.3,0.9-2.4,2.2-3,3.6c-0.6,1.5-0.8,3.1-0.5,4.7c0.3,1.6,1.1,3,2.2,4.1
	c1.1,1.1,2.6,1.9,4.1,2.2c1.6,0.3,3.2,0.2,4.7-0.5c1.5-0.6,2.7-1.7,3.6-3c0.9-1.3,1.4-2.9,1.4-4.5c0-2.1-0.9-4.2-2.4-5.7
	C25.1,8.9,23.1,8,20.9,8L20.9,8z M20.9,21.1c-1,0-2-0.3-2.8-0.8c-0.8-0.5-1.5-1.3-1.8-2.2c-0.4-0.9-0.5-1.9-0.3-2.9
	c0.2-1,0.7-1.9,1.4-2.6c0.7-0.7,1.6-1.2,2.6-1.4c1-0.2,2-0.1,2.9,0.3c0.9,0.4,1.7,1,2.2,1.8c0.5,0.8,0.8,1.8,0.8,2.8
	c0,1.3-0.5,2.6-1.5,3.5S22.2,21.1,20.9,21.1z"/>
<path class="st1" d="M32.8,33.2c-0.1-2.1-1-4.1-2.4-5.7c-0.9-1-2-1.9-3.2-2.4c-1.2-0.6-2.6-0.9-3.9-0.9h-4.8c-2.5,0-4.9,1-6.7,2.8
	C10,28.8,9,31.2,9,33.7v25.7h20.2v-3.1H12.1V33.7c0-1.7,0.7-3.3,1.9-4.5c1.2-1.2,2.8-1.9,4.5-1.9h4.8c1.7,0,3.3,0.7,4.5,1.9
	c1.2,1.2,1.9,2.8,1.9,4.5v6.2c0.6-1.4,1.7-2.6,3.1-3.3v-2.9C32.8,33.5,32.8,33.4,32.8,33.2z"/>
<path class="st1" d="M38,16.6c-2.1,0-4.2,0.9-5.7,2.4c-1.5,1.5-2.4,3.6-2.4,5.7c0,0.9,0.2,1.9,0.5,2.8c0.4,1,0.9,1.9,1.7,2.7
	c0.8,0.8,1.7,1.5,2.7,1.9c1,0.4,2.1,0.7,3.2,0.7s2.2-0.2,3.2-0.7c1-0.4,1.9-1.1,2.7-1.9c0.7-0.8,1.3-1.7,1.7-2.7
	c0.3-0.9,0.5-1.8,0.5-2.8c0-2.1-0.9-4.2-2.4-5.7C42.3,17.4,40.2,16.6,38,16.6z M38,29.7c-1,0-2-0.3-2.8-0.8
	c-0.8-0.5-1.5-1.3-1.8-2.2c-0.4-0.9-0.5-1.9-0.3-2.9c0.2-1,0.7-1.9,1.4-2.6c0.7-0.7,1.6-1.2,2.6-1.4c1-0.2,2-0.1,2.9,0.3
	c0.9,0.4,1.7,1,2.2,1.8c0.5,0.8,0.8,1.8,0.8,2.8c0,1.3-0.5,2.6-1.5,3.5C40.6,29.1,39.4,29.7,38,29.7z"/>
<path class="st2" d="M45.3,36.1c-1.5-1.2-3.3-1.8-5.2-1.8h-4.2c-2.2,0-4.4,0.9-5.9,2.5c-1.6,1.6-2.5,3.7-2.5,5.9v22.6h21V42.6
	c0-1.3-0.3-2.5-0.8-3.6C47.1,37.8,46.3,36.9,45.3,36.1z"/>
</svg>
