<svg width="78" height="76" viewBox="0 0 78 76" fill="none" xmlns="http://www.w3.org/2000/svg">
<path d="M17.5 0L32.6554 26.25H2.34456L17.5 0Z" fill="#FD8282"/>
<path fill-rule="evenodd" clip-rule="evenodd" d="M13.7619 58.4283H66.2378V19.7619H13.7619V58.4283ZM67.6187 61.1902H12.3809C11.6173 61.1902 11 60.5729 11 59.8093V18.3809C11 17.6173 11.6173 17 12.3809 17H67.6187C68.3824 17 68.9997 17.6173 68.9997 18.3809V59.8093C68.9997 60.5729 68.3824 61.1902 67.6187 61.1902Z" fill="#0A3B70"/>
<path fill-rule="evenodd" clip-rule="evenodd" d="M67.6187 32.1904H12.3809C11.6173 32.1904 11 31.5731 11 30.8094C11 30.0457 11.6173 29.4285 12.3809 29.4285H67.6187C68.3824 29.4285 68.9997 30.0457 68.9997 30.8094C68.9997 31.5731 68.3824 32.1904 67.6187 32.1904Z" fill="#0A3B70"/>
<path fill-rule="evenodd" clip-rule="evenodd" d="M52.4278 61.1902C51.6642 61.1902 51.0469 60.5729 51.0469 59.8092V30.8094C51.0469 30.0457 51.6642 29.4285 52.4278 29.4285C53.1915 29.4285 53.8088 30.0457 53.8088 30.8094V59.8092C53.8088 60.5729 53.1915 61.1902 52.4278 61.1902Z" fill="#0A3B70"/>
<path fill-rule="evenodd" clip-rule="evenodd" d="M22.7384 54.9759C21.9747 54.9759 21.3574 54.3586 21.3574 53.595V41.9964C21.3574 41.2328 21.9747 40.6155 22.7384 40.6155C23.502 40.6155 24.1193 41.2328 24.1193 41.9964V53.595C24.1193 54.3586 23.502 54.9759 22.7384 54.9759Z" fill="#0A3B70"/>
<path fill-rule="evenodd" clip-rule="evenodd" d="M29.1837 54.9758C28.42 54.9758 27.8027 54.3585 27.8027 53.5949V37.0235C27.8027 36.2599 28.42 35.6426 29.1837 35.6426C29.9473 35.6426 30.5646 36.2599 30.5646 37.0235V53.5949C30.5646 54.3585 29.9473 54.9758 29.1837 54.9758Z" fill="#0A3B70"/>
<path fill-rule="evenodd" clip-rule="evenodd" d="M42.0704 54.9759C41.3067 54.9759 40.6895 54.3586 40.6895 53.595V41.9964C40.6895 41.2328 41.3067 40.6155 42.0704 40.6155C42.8341 40.6155 43.4513 41.2328 43.4513 41.9964V53.595C43.4513 54.3586 42.8341 54.9759 42.0704 54.9759Z" fill="#0A3B70"/>
<path fill-rule="evenodd" clip-rule="evenodd" d="M35.627 54.9756C34.8634 54.9756 34.2461 54.3583 34.2461 53.5947V46.9661C34.2461 46.2025 34.8634 45.5852 35.627 45.5852C36.3907 45.5852 37.008 46.2025 37.008 46.9661V53.5947C37.008 54.3583 36.3907 54.9756 35.627 54.9756Z" fill="#0A3B70"/>
</svg>
