<svg width="76" height="76" viewBox="0 0 76 76" fill="none" xmlns="http://www.w3.org/2000/svg">
<circle opacity="0.5" cx="15" cy="15" r="15" fill="#A8EFCF"/>
<mask id="mask0_662_5693" style="mask-type:alpha" maskUnits="userSpaceOnUse" x="20" y="18" width="37" height="46">
<path d="M20.4727 18.176H56.6451V63.4501H20.4727V18.176Z" fill="white"/>
</mask>
<g mask="url(#mask0_662_5693)">
<path fill-rule="evenodd" clip-rule="evenodd" d="M24.7793 20.9819C23.9511 20.9819 23.2785 21.6569 23.2785 22.4835V59.1427C23.2785 59.97 23.9511 60.6443 24.7793 60.6443H52.3379C53.1652 60.6443 53.8394 59.97 53.8394 59.1427V22.4835C53.8394 21.6569 53.1652 20.9819 52.3379 20.9819H24.7793ZM52.3379 63.4501H24.7793C22.4047 63.4501 20.4727 61.5181 20.4727 59.1427V22.4835C20.4727 20.1081 22.4047 18.176 24.7793 18.176H52.3379C54.7132 18.176 56.6453 20.1081 56.6453 22.4835V59.1427C56.6453 61.5181 54.7132 63.4501 52.3379 63.4501Z" fill="#0A3B70"/>
</g>
<path fill-rule="evenodd" clip-rule="evenodd" d="M46.901 68.0001C46.125 68.0001 45.498 67.3732 45.498 66.5971V62.0829C45.498 61.3068 46.125 60.6799 46.901 60.6799C47.6762 60.6799 48.3039 61.3068 48.3039 62.0829V66.5971C48.3039 67.3732 47.6762 68.0001 46.901 68.0001Z" fill="#0A3B70"/>
<path fill-rule="evenodd" clip-rule="evenodd" d="M30.2174 68.0001C29.4422 68.0001 28.8145 67.3732 28.8145 66.5971V62.0829C28.8145 61.3068 29.4422 60.6799 30.2174 60.6799C30.9934 60.6799 31.6203 61.3068 31.6203 62.0829V66.5971C31.6203 67.3732 30.9934 68.0001 30.2174 68.0001Z" fill="#0A3B70"/>
<path fill-rule="evenodd" clip-rule="evenodd" d="M46.902 20.9819C46.1259 20.9819 45.499 20.355 45.499 19.579V13.5135C45.499 12.614 44.6316 11.8821 43.5646 11.8821H33.5548C32.4878 11.8821 31.6203 12.614 31.6203 13.5135V19.579C31.6203 20.355 30.9926 20.9819 30.2174 20.9819C29.4422 20.9819 28.8145 20.355 28.8145 19.579V13.5135C28.8145 11.0675 30.9405 9.07617 33.5548 9.07617H43.5646C46.1789 9.07617 48.3049 11.0675 48.3049 13.5135V19.579C48.3049 20.355 47.6772 20.9819 46.902 20.9819Z" fill="#0A3B70"/>
<path fill-rule="evenodd" clip-rule="evenodd" d="M41.5915 12.5838H35.5243C34.3619 12.5838 33.4199 11.641 33.4199 10.4794C33.4199 9.31778 34.3619 8.375 35.5243 8.375H41.5915C42.7531 8.375 43.6959 9.31778 43.6959 10.4794C43.6959 11.641 42.7531 12.5838 41.5915 12.5838Z" fill="#0A3B70"/>
<path fill-rule="evenodd" clip-rule="evenodd" d="M30.2174 54.3504C29.4422 54.3504 28.8145 53.7227 28.8145 52.9475V28.6798C28.8145 27.9046 29.4422 27.2769 30.2174 27.2769C30.9934 27.2769 31.6203 27.9046 31.6203 28.6798V52.9475C31.6203 53.7227 30.9934 54.3504 30.2174 54.3504Z" fill="#0A3B70"/>
<path fill-rule="evenodd" clip-rule="evenodd" d="M38.5592 54.3504C37.7832 54.3504 37.1562 53.7227 37.1562 52.9475V28.6798C37.1562 27.9046 37.7832 27.2769 38.5592 27.2769C39.3352 27.2769 39.9621 27.9046 39.9621 28.6798V52.9475C39.9621 53.7227 39.3352 54.3504 38.5592 54.3504Z" fill="#0A3B70"/>
<path fill-rule="evenodd" clip-rule="evenodd" d="M46.901 54.3504C46.125 54.3504 45.498 53.7227 45.498 52.9475V28.6798C45.498 27.9046 46.125 27.2769 46.901 27.2769C47.6762 27.2769 48.3039 27.9046 48.3039 28.6798V52.9475C48.3039 53.7227 47.6762 54.3504 46.901 54.3504Z" fill="#0A3B70"/>
</svg>
