<svg width="76" height="76" viewBox="0 0 76 76" fill="none" xmlns="http://www.w3.org/2000/svg">
<rect opacity="0.5" width="30" height="30" rx="15" fill="#3CDBC0"/>
<path fill-rule="evenodd" clip-rule="evenodd" d="M21.2449 25.0664L17.1848 33.493C21.4561 33.4156 26.8394 33.335 32.3497 33.2809V27.7932C32.3497 26.9648 33.0212 26.2932 33.8497 26.2932C34.6781 26.2932 35.3497 26.9648 35.3497 27.7932V33.2543C40.6031 33.2129 45.81 33.2003 50.1231 33.2422L45.7868 25.0664H21.2449ZM53.545 33.2914L48.0848 22.9964C47.7813 22.4242 47.1865 22.0664 46.5387 22.0664H20.4597C19.7876 22.0664 19.1749 22.4513 18.8831 23.0568L13.7687 33.6716C12.8544 33.8684 11.7904 34.2915 10.8625 35.0587C9.53605 36.1553 8.58379 37.8826 8.68739 40.3173C8.83299 43.7387 8.77325 45.7644 8.71576 46.538C8.6422 47.5278 9.41628 48.4284 10.4672 48.4284H13.5091C14.1712 50.9272 16.4481 52.7689 19.1552 52.7689C22.3808 52.7689 24.9957 50.154 24.9957 46.9284C24.9957 43.7028 22.3808 41.0879 19.1552 41.0879C16.4481 41.0879 14.1712 42.9296 13.5091 45.4284H11.7651C11.7916 44.2558 11.7839 42.5209 11.6847 40.1898C11.6214 38.703 12.164 37.8751 12.774 37.3708C13.4392 36.8209 14.2886 36.5804 14.8426 36.5378C24.419 36.3487 42.2848 36.1022 52.6089 36.2747C55.5818 36.3244 57.8761 36.4083 59.1656 36.532C61.4383 36.7499 62.9393 38.2142 63.9334 40.2972C64.7172 41.9397 65.1115 43.8402 65.2543 45.4284H59.641C58.9033 43.0479 56.6842 41.3189 54.0612 41.3189C50.8356 41.3189 48.2207 43.9338 48.2207 47.1594C48.2207 50.385 50.8356 52.9999 54.0612 52.9999C56.8511 52.9999 59.184 51.0438 59.7635 48.4284H66.5703C67.5052 48.4284 68.326 47.6762 68.3181 46.6712C68.3019 44.6261 67.8912 41.625 66.6408 39.0051C65.3777 36.3582 63.139 33.8992 59.452 33.5457C58.1739 33.4231 56.1031 33.3424 53.545 33.2914ZM26.4322 46.9284C26.4322 46.1 27.1037 45.4284 27.9322 45.4284H45.262C46.0904 45.4284 46.762 46.1 46.762 46.9284C46.762 47.7568 46.0904 48.4284 45.262 48.4284H27.9322C27.1037 48.4284 26.4322 47.7568 26.4322 46.9284ZM38.0765 38.1282C37.248 38.1282 36.5765 38.7998 36.5765 39.6282C36.5765 40.4566 37.248 41.1282 38.0765 41.1282H42.3032C43.1317 41.1282 43.8032 40.4566 43.8032 39.6282C43.8032 38.7998 43.1317 38.1282 42.3032 38.1282H38.0765ZM54.0612 49.9999C55.63 49.9999 56.9017 48.7282 56.9017 47.1594C56.9017 45.5906 55.63 44.3189 54.0612 44.3189C52.4925 44.3189 51.2207 45.5906 51.2207 47.1594C51.2207 48.7282 52.4925 49.9999 54.0612 49.9999ZM21.9957 46.9284C21.9957 48.4972 20.7239 49.7689 19.1552 49.7689C17.5864 49.7689 16.3147 48.4972 16.3147 46.9284C16.3147 45.3596 17.5864 44.0879 19.1552 44.0879C20.7239 44.0879 21.9957 45.3596 21.9957 46.9284Z" fill="#0A3B70"/>
</svg>
