<svg width="76" height="76" viewBox="0 0 76 76" fill="none" xmlns="http://www.w3.org/2000/svg">
<circle cx="61" cy="15" r="15" fill="#FD8282" fill-opacity="0.5"/>
<path fill-rule="evenodd" clip-rule="evenodd" d="M17.8271 57.7803H57.7791V17.8284H17.8271V57.7803ZM59.3157 60.8535H16.2905C15.4408 60.8535 14.7539 60.1667 14.7539 59.3169V16.2917C14.7539 15.442 15.4408 14.7551 16.2905 14.7551H59.3157C60.1654 14.7551 60.8523 15.442 60.8523 16.2917V59.3169C60.8523 60.1667 60.1654 60.8535 59.3157 60.8535Z" fill="#0A3B70"/>
<path fill-rule="evenodd" clip-rule="evenodd" d="M27.0478 48.5607H48.5604V27.0481H27.0478V48.5607ZM50.097 51.6339H25.5112C24.6615 51.6339 23.9746 50.947 23.9746 50.0973V25.5115C23.9746 24.6617 24.6615 23.9749 25.5112 23.9749H50.097C50.9468 23.9749 51.6336 24.6617 51.6336 25.5115V50.0973C51.6336 50.947 50.9468 51.6339 50.097 51.6339Z" fill="#0A3B70"/>
<path fill-rule="evenodd" clip-rule="evenodd" d="M43.9507 17.8283C43.1009 17.8283 42.4141 17.1415 42.4141 16.2917V10.1453C42.4141 9.29551 43.1009 8.60864 43.9507 8.60864C44.8004 8.60864 45.4873 9.29551 45.4873 10.1453V16.2917C45.4873 17.1415 44.8004 17.8283 43.9507 17.8283Z" fill="#0A3B70"/>
<path fill-rule="evenodd" clip-rule="evenodd" d="M31.6577 17.8283C30.808 17.8283 30.1211 17.1415 30.1211 16.2917V10.1453C30.1211 9.29551 30.808 8.60864 31.6577 8.60864C32.5075 8.60864 33.1943 9.29551 33.1943 10.1453V16.2917C33.1943 17.1415 32.5075 17.8283 31.6577 17.8283Z" fill="#0A3B70"/>
<path fill-rule="evenodd" clip-rule="evenodd" d="M43.9507 67.0002C43.1009 67.0002 42.4141 66.3133 42.4141 65.4636V59.3171C42.4141 58.4674 43.1009 57.7805 43.9507 57.7805C44.8004 57.7805 45.4873 58.4674 45.4873 59.3171V65.4636C45.4873 66.3133 44.8004 67.0002 43.9507 67.0002Z" fill="#0A3B70"/>
<path fill-rule="evenodd" clip-rule="evenodd" d="M31.6577 67.0002C30.808 67.0002 30.1211 66.3133 30.1211 65.4636V59.3171C30.1211 58.4674 30.808 57.7805 31.6577 57.7805C32.5075 57.7805 33.1943 58.4674 33.1943 59.3171V65.4636C33.1943 66.3133 32.5075 67.0002 31.6577 67.0002Z" fill="#0A3B70"/>
<path fill-rule="evenodd" clip-rule="evenodd" d="M65.4643 45.4856H59.3179C58.4681 45.4856 57.7812 44.7987 57.7812 43.949C57.7812 43.0992 58.4681 42.4124 59.3179 42.4124H65.4643C66.3141 42.4124 67.0009 43.0992 67.0009 43.949C67.0009 44.7987 66.3141 45.4856 65.4643 45.4856Z" fill="#0A3B70"/>
<path fill-rule="evenodd" clip-rule="evenodd" d="M65.4643 33.1943H59.3179C58.4681 33.1943 57.7812 32.5075 57.7812 31.6577C57.7812 30.808 58.4681 30.1211 59.3179 30.1211H65.4643C66.3141 30.1211 67.0009 30.808 67.0009 31.6577C67.0009 32.5075 66.3141 33.1943 65.4643 33.1943Z" fill="#0A3B70"/>
<path fill-rule="evenodd" clip-rule="evenodd" d="M16.2924 45.4856H10.146C9.29624 45.4856 8.60938 44.7987 8.60938 43.949C8.60938 43.0992 9.29624 42.4124 10.146 42.4124H16.2924C17.1422 42.4124 17.8291 43.0992 17.8291 43.949C17.8291 44.7987 17.1422 45.4856 16.2924 45.4856Z" fill="#0A3B70"/>
<path fill-rule="evenodd" clip-rule="evenodd" d="M16.2924 33.1943H10.146C9.29624 33.1943 8.60938 32.5075 8.60938 31.6577C8.60938 30.808 9.29624 30.1211 10.146 30.1211H16.2924C17.1422 30.1211 17.8291 30.808 17.8291 31.6577C17.8291 32.5075 17.1422 33.1943 16.2924 33.1943Z" fill="#0A3B70"/>
</svg>
