<?xml version="1.0" encoding="utf-8"?>
<!-- Generator: Adobe Illustrator 26.0.1, SVG Export Plug-In . SVG Version: 6.00 Build 0)  -->
<svg version="1.1" id="Layer_1" xmlns="http://www.w3.org/2000/svg" xmlns:xlink="http://www.w3.org/1999/xlink" x="0px" y="0px"
	 viewBox="0 0 78 76" style="enable-background:new 0 0 78 76;" xml:space="preserve">
<style type="text/css">
	.st0{fill:#ED8885;}
	.st1{fill-rule:evenodd;clip-rule:evenodd;fill:#0A3B70;}
</style>
<polygon class="st0" points="17.5,0 2.3,26.3 32.7,26.3 "/>
<path class="st1" d="M13.8,58.4h52.5V19.8H13.8V58.4z M67.6,61.2H12.4c-0.8,0-1.4-0.6-1.4-1.4V18.4c0-0.8,0.6-1.4,1.4-1.4h55.2
	c0.8,0,1.4,0.6,1.4,1.4v41.4C69,60.6,68.4,61.2,67.6,61.2z"/>
<path class="st1" d="M67.6,32.2H12.4c-0.8,0-1.4-0.6-1.4-1.4c0-0.8,0.6-1.4,1.4-1.4h55.2c0.8,0,1.4,0.6,1.4,1.4
	C69,31.6,68.4,32.2,67.6,32.2z"/>
<path class="st1" d="M52.4,61.2c-0.8,0-1.4-0.6-1.4-1.4v-29c0-0.8,0.6-1.4,1.4-1.4c0.8,0,1.4,0.6,1.4,1.4v29
	C53.8,60.6,53.2,61.2,52.4,61.2z"/>
<path class="st1" d="M22.7,55c-0.8,0-1.4-0.6-1.4-1.4V42c0-0.8,0.6-1.4,1.4-1.4c0.8,0,1.4,0.6,1.4,1.4v11.6
	C24.1,54.4,23.5,55,22.7,55z"/>
<path class="st1" d="M29.2,55c-0.8,0-1.4-0.6-1.4-1.4V37c0-0.8,0.6-1.4,1.4-1.4c0.8,0,1.4,0.6,1.4,1.4v16.6
	C30.6,54.4,29.9,55,29.2,55z"/>
<path class="st1" d="M42.1,55c-0.8,0-1.4-0.6-1.4-1.4V42c0-0.8,0.6-1.4,1.4-1.4s1.4,0.6,1.4,1.4v11.6C43.5,54.4,42.8,55,42.1,55z"/>
<path class="st1" d="M35.6,55c-0.8,0-1.4-0.6-1.4-1.4V47c0-0.8,0.6-1.4,1.4-1.4c0.8,0,1.4,0.6,1.4,1.4v6.6C37,54.4,36.4,55,35.6,55z
	"/>
</svg>
