<?xml version="1.0" encoding="utf-8"?>
<!-- Generator: Adobe Illustrator 26.0.1, SVG Export Plug-In . SVG Version: 6.00 Build 0)  -->
<svg version="1.1" id="Layer_1" xmlns="http://www.w3.org/2000/svg" xmlns:xlink="http://www.w3.org/1999/xlink" x="0px" y="0px"
	 viewBox="0 0 77 77" style="enable-background:new 0 0 77 77;" xml:space="preserve">
<style type="text/css">
	.st0{opacity:0.5;fill:#74CAF4;enable-background:new    ;}
	.st1{fill:#0A3B70;}
</style>
<circle class="st0" cx="15" cy="61" r="15"/>
<path class="st1" d="M59.3,38.9c0-1-0.6-2.9-0.8-3.2c-0.2-0.3-0.3-0.3-1-1c-1.7-1.7-3.8-1.6-6-0.6c-0.2-0.3-0.4-0.6-0.5-0.8
	c-1.3-2.5-4.4-3.3-6.8-2.1c-0.7,0.3-1,0.2-1.5-0.3c-1.4-1.5-3-2.2-5.1-1.6c-0.2,0.1-0.4,0-0.6,0.1c-0.6,0.2-0.8,0-0.8-0.6
	c0-2,0-4.1,0-6.1c0-2.3-2.2-4.3-4.4-4.5c-3.5-0.4-6,2.3-5.9,5.4c0.1,3.8,0,7.5,0,11.3l0,4.8c-0.1,0.7,0,1.4,0,2.3
	c-0.9-0.3-1.6-0.6-2.3-0.8c-2-0.7-3.6,0.1-5.1,1.5c-0.5,0.4-0.9,0.9-1.4,1.4c-1.3,1.3-1.3,3,0,4.3c3.1,3.1,6.1,6.2,9.2,9.2
	c1,1,2,2.1,3.3,2.8c1.1,0.7,2.4,1.1,3.7,1.2c5.5,0.8,11.1,0.4,16.6,0.3c2.9,0,5.3-1.5,7.3-3.8c1.6-1.8,2.2-3.9,2.1-6.3
	c-0.1-4.1,0-8.1,0-12.2C59.3,39.2,59.4,39.1,59.3,38.9z M53.3,57.8c-1.5,1-3.3,1.4-5.1,1.4c-3.9,0-7.9,0-11.8,0
	c-1.8,0-3.7-0.3-5.3-1.3c-0.6-0.4-1.2-0.9-1.7-1.4c-3.2-3.2-6.3-6.3-9.5-9.5c-0.8-0.8-0.8-0.9,0-1.7l0.2-0.2
	c1.9-1.8,1.9-1.8,4.3-0.7c1.1,0.5,2.2,1.1,3.4,1.6c0.3,0.1,0.5,0.2,1,0.4c0-0.6,0.1-1,0.1-1.4c0-7,0-14,0-21c0-0.7,0.1-1.3,0.4-1.9
	c0.4-0.9,1.6-1.3,2.5-1.1c1.1,0.3,1.8,1.2,1.8,2.3v14.4c0,1.2,0,1.2,1.2,1.2c2.2,0,1.8-0.2,1.9-1.8c0-1,0-2,0-3c0.1-1.2,1-2,2.3-2
	c1.3,0,2.3,0.8,2.3,2c0,1.3,0,2.6,0,3.9c0,0.7,0.3,0.9,0.9,0.9c2.1,0.1,2.1,0.1,2.1-1.9c0-0.7,0-1.4,0.2-1.9c0.4-1,1.6-1.7,2.5-1.5
	c1.2,0.3,1.9,0.9,2,2.4c0,0.7,0.1,1.4,0,2.2c0,0.5,0.2,0.8,0.8,0.8c0.4,0,0.8,0,1.1,0c0.6,0.1,0.9-0.2,1.1-0.8
	c0.4-1.2,1.6-2,2.5-1.8c1.3,0.3,2.1,1,2.1,2.6c0,4.4-0.1,8.7,0,13.1C56.7,54.7,55.4,56.5,53.3,57.8z"/>
<path class="st1" d="M63.8,11H11c-0.9,0.8-0.7,1.8-0.7,2.8c0,8.5,0,17.1,0,25.6c0,1.4,0,2,2.1,2c4.1,0,9.8,0,13.8,0l0.1-2.5
	c-3.5,0-8.8-0.2-12.3-0.1c-0.8,0-1-0.3-1-1c0-7.7,0-15.4,0-23c0-0.3,0.1-0.7,0.1-1v0h47.7c1.3,0,1.3,0,1.3,1.2v22.5
	c0,1.2-0.1,1.2-1.3,1.3c0,0-2.4,0-2.4,0c0,0.9,0,1.8,0,2.6c0.8,0,3.9,0,4.6,0c1.3,0,1.6-0.6,1.8-1.7c0-0.2,0-0.5,0-0.7
	c0-8.1,0-16.2,0-24.3C64.8,13.4,64.9,12,63.8,11z"/>
</svg>
