<svg width="76" height="76" viewBox="0 0 76 76" fill="none" xmlns="http://www.w3.org/2000/svg">
<rect opacity="0.5" x="46" width="30" height="30" rx="15" fill="#3CDBC0"/>
<path d="M38.0009 9.4429C37.1809 9.44007 36.3785 9.68064 35.6953 10.1341C35.0121 10.5876 34.479 11.2337 34.1632 11.9904C33.8475 12.7472 33.7634 13.5806 33.9216 14.3852C34.0799 15.1898 34.4733 15.9293 35.0521 16.5101C35.6309 17.0909 36.369 17.4869 37.173 17.6479C37.9771 17.809 38.8108 17.7277 39.5687 17.4146C40.3265 17.1015 40.9744 16.5705 41.4303 15.8889C41.8861 15.2073 42.1294 14.4057 42.1295 13.5857C42.1313 13.0424 42.0259 12.504 41.8193 12.0014C41.6127 11.4989 41.3088 11.0421 40.9252 10.6572C40.5417 10.2723 40.0859 9.96691 39.5841 9.75853C39.0823 9.55016 38.5442 9.44289 38.0009 9.4429V9.4429Z" stroke="#0A3B70" stroke-width="3.25" stroke-linecap="round" stroke-linejoin="round"/>
<path d="M38 17.7002V31.1145" stroke="#0A3B70" stroke-width="3.25" stroke-linecap="round" stroke-linejoin="round"/>
<path d="M17.8008 17.8002C17.224 18.3778 16.8315 19.1135 16.6726 19.9142C16.5138 20.7149 16.5959 21.5447 16.9086 22.2987C17.2212 23.0528 17.7503 23.6972 18.4292 24.1506C19.108 24.604 19.906 24.846 20.7223 24.846C21.5386 24.846 22.3366 24.604 23.0154 24.1506C23.6942 23.6972 24.2234 23.0528 24.5361 22.2987C24.8487 21.5447 24.9308 20.7149 24.7719 19.9142C24.6131 19.1135 24.2205 18.3778 23.6437 17.8002C23.2603 17.4162 22.8049 17.1115 22.3036 16.9037C21.8023 16.6958 21.265 16.5889 20.7223 16.5889C20.1797 16.5889 19.6423 16.6958 19.141 16.9037C18.6397 17.1115 18.1843 17.4162 17.8008 17.8002Z" stroke="#0A3B70" stroke-width="3.25" stroke-linecap="round" stroke-linejoin="round"/>
<path d="M23.6426 23.6431L33.1283 33.1288" stroke="#0A3B70" stroke-width="3.25" stroke-linecap="round" stroke-linejoin="round"/>
<path d="M9.42971 38.0143C9.42689 38.8349 9.6678 39.6379 10.1219 40.3213C10.5761 41.0048 11.223 41.538 11.9805 41.8534C12.7381 42.1687 13.5723 42.252 14.3773 42.0926C15.1823 41.9332 15.9218 41.5383 16.502 40.958C17.0823 40.3778 17.4771 39.6383 17.6365 38.8333C17.7959 38.0284 17.7127 37.1942 17.3973 36.4366C17.082 35.679 16.5487 35.0321 15.8653 34.578C15.1818 34.1239 14.3789 33.8829 13.5583 33.8858C12.4645 33.8895 11.4165 34.3257 10.6431 35.0991C9.86965 35.8726 9.43348 36.9205 9.42971 38.0143Z" stroke="#0A3B70" stroke-width="3.25" stroke-linecap="round" stroke-linejoin="round"/>
<path d="M17.6992 38H31.1135" stroke="#0A3B70" stroke-width="3.25" stroke-linecap="round" stroke-linejoin="round"/>
<path d="M17.8011 58.1999C18.3788 58.7767 19.1144 59.1693 19.9151 59.3281C20.7158 59.487 21.5456 59.4049 22.2997 59.0922C23.0537 58.7796 23.6982 58.2504 24.1516 57.5716C24.605 56.8928 24.8469 56.0948 24.8469 55.2785C24.8469 54.4622 24.605 53.6642 24.1516 52.9854C23.6982 52.3066 23.0537 51.7774 22.2997 51.4647C21.5456 51.1521 20.7158 51.07 19.9151 51.2288C19.1144 51.3876 18.3788 51.7802 17.8011 52.357C17.4171 52.7405 17.1125 53.1959 16.9047 53.6972C16.6968 54.1985 16.5898 54.7358 16.5898 55.2785C16.5898 55.8212 16.6968 56.3585 16.9047 56.8598C17.1125 57.3611 17.4171 57.8165 17.8011 58.1999V58.1999Z" stroke="#0A3B70" stroke-width="3.25" stroke-linecap="round" stroke-linejoin="round"/>
<path d="M23.6426 52.3573L33.1283 42.8716" stroke="#0A3B70" stroke-width="3.25" stroke-linecap="round" stroke-linejoin="round"/>
<path d="M37.9997 66.5858C38.8162 66.5858 39.6144 66.3436 40.2934 65.89C40.9723 65.4363 41.5015 64.7915 41.8139 64.0371C42.1264 63.2827 42.2082 62.4526 42.0489 61.6517C41.8896 60.8509 41.4964 60.1152 40.919 59.5379C40.3416 58.9605 39.606 58.5672 38.8051 58.4079C38.0042 58.2486 37.1741 58.3304 36.4197 58.6429C35.6653 58.9554 35.0205 59.4845 34.5669 60.1635C34.1132 60.8424 33.8711 61.6406 33.8711 62.4572C33.8711 63.5522 34.3061 64.6023 35.0804 65.3765C35.8546 66.1508 36.9047 66.5858 37.9997 66.5858V66.5858Z" stroke="#0A3B70" stroke-width="3.25" stroke-linecap="round" stroke-linejoin="round"/>
<path d="M38 58.3V44.8857" stroke="#0A3B70" stroke-width="3.25" stroke-linecap="round" stroke-linejoin="round"/>
<path d="M58.2004 58.2001C58.7772 57.6225 59.1698 56.8868 59.3286 56.0861C59.4874 55.2854 59.4053 54.4556 59.0926 53.7016C58.78 52.9475 58.2509 52.3031 57.5721 51.8497C56.8933 51.3963 56.0952 51.1543 55.2789 51.1543C54.4626 51.1543 53.6646 51.3963 52.9858 51.8497C52.307 52.3031 51.7778 52.9475 51.4652 53.7016C51.1525 54.4556 51.0705 55.2854 51.2293 56.0861C51.3881 56.8868 51.7807 57.6225 52.3575 58.2001C52.741 58.5841 53.1964 58.8888 53.6977 59.0966C54.1989 59.3045 54.7362 59.4114 55.2789 59.4114C55.8216 59.4114 56.359 59.3045 56.8602 59.0966C57.3615 58.8888 57.8169 58.5841 58.2004 58.2001V58.2001Z" stroke="#0A3B70" stroke-width="3.25" stroke-linecap="round" stroke-linejoin="round"/>
<path d="M52.3568 52.3573L42.8711 42.8716" stroke="#0A3B70" stroke-width="3.25" stroke-linecap="round" stroke-linejoin="round"/>
<path d="M66.5709 38.0144C66.5709 37.1944 66.3275 36.3929 65.8717 35.7113C65.4158 35.0297 64.7679 34.4987 64.0101 34.1856C63.2522 33.8724 62.4186 33.7912 61.6145 33.9522C60.8105 34.1133 60.0723 34.5092 59.4935 35.0901C58.9147 35.6709 58.5213 36.4104 58.363 37.215C58.2048 38.0196 58.2889 38.853 58.6046 39.6097C58.9204 40.3665 59.4536 41.0125 60.1368 41.466C60.82 41.9195 61.6223 42.1601 62.4423 42.1573C63.5385 42.1535 64.5887 41.7154 65.3625 40.9388C66.1364 40.1623 66.5709 39.1107 66.5709 38.0144V38.0144Z" stroke="#0A3B70" stroke-width="3.25" stroke-linecap="round" stroke-linejoin="round"/>
<path d="M58.301 38H44.8867" stroke="#0A3B70" stroke-width="3.25" stroke-linecap="round" stroke-linejoin="round"/>
<path d="M58.2001 17.7999C57.6225 17.2231 56.8868 16.8305 56.0861 16.6717C55.2854 16.5128 54.4556 16.595 53.7016 16.9076C52.9475 17.2203 52.3031 17.7494 51.8497 18.4282C51.3963 19.1071 51.1543 19.9051 51.1543 20.7214C51.1543 21.5377 51.3963 22.3356 51.8497 23.0144C52.3031 23.6933 52.9475 24.2224 53.7016 24.5351C54.4556 24.8477 55.2854 24.9298 56.0861 24.771C56.8868 24.6122 57.6225 24.2196 58.2001 23.6428C58.5841 23.2593 58.8887 22.8039 59.0965 22.3026C59.3044 21.8014 59.4114 21.264 59.4114 20.7214C59.4114 20.1787 59.3044 19.6413 59.0965 19.14C58.8887 18.6388 58.5841 18.1834 58.2001 17.7999V17.7999Z" stroke="#0A3B70" stroke-width="3.25" stroke-linecap="round" stroke-linejoin="round"/>
<path d="M52.3568 23.6431L42.8711 33.1288" stroke="#0A3B70" stroke-width="3.25" stroke-linecap="round" stroke-linejoin="round"/>
<path d="M37.999 44.8857C41.8019 44.8857 44.8847 41.8028 44.8847 38C44.8847 34.1971 41.8019 31.1143 37.999 31.1143C34.1961 31.1143 31.1133 34.1971 31.1133 38C31.1133 41.8028 34.1961 44.8857 37.999 44.8857Z" stroke="#0A3B70" stroke-width="3.25" stroke-linecap="round" stroke-linejoin="round"/>
</svg>
