<svg width="76" height="76" viewBox="0 0 76 76" fill="none" xmlns="http://www.w3.org/2000/svg">
<g clip-path="url(#clip0_662_7105)">
<rect opacity="0.5" x="41" y="17.6777" width="25" height="25" transform="rotate(-45 41 17.6777)" fill="#DFFEAE"/>
<path fill-rule="evenodd" clip-rule="evenodd" d="M65.7813 61.087H10.3849C9.61906 61.087 9 60.4679 9 59.702V15.3849C9 14.6191 9.61906 14 10.3849 14C11.1508 14 11.7698 14.6191 11.7698 15.3849V58.3171H65.7813C66.5472 58.3171 67.1663 58.9362 67.1663 59.702C67.1663 60.4679 66.5472 61.087 65.7813 61.087Z" fill="#0A3B70"/>
<path fill-rule="evenodd" clip-rule="evenodd" d="M20.2313 50.5097C19.957 50.5097 19.6814 50.428 19.4391 50.259C18.8117 49.8214 18.6594 48.9572 19.0984 48.3312L28.8496 34.4004C29.2872 33.773 30.1514 33.6221 30.7773 34.0597C31.4047 34.4973 31.5571 35.3615 31.118 35.9889L21.3669 49.9183C21.0982 50.3047 20.6675 50.5097 20.2313 50.5097Z" fill="#0A3B70"/>
<path fill-rule="evenodd" clip-rule="evenodd" d="M42.2427 41.9364C41.9644 41.9364 41.6832 41.8519 41.4395 41.6774L33.0179 35.6628C32.396 35.2182 32.2506 34.3526 32.6952 33.7308C33.1411 33.109 34.0081 32.9649 34.6271 33.4095L43.0488 39.4256C43.6706 39.8687 43.816 40.7343 43.3701 41.3561C43.1 41.7342 42.6748 41.9364 42.2427 41.9364Z" fill="#0A3B70"/>
<path fill-rule="evenodd" clip-rule="evenodd" d="M46.0809 41.2762C45.8067 41.2762 45.5311 41.1945 45.2887 41.0256C44.6613 40.5879 44.509 39.7238 44.948 39.0978L54.6992 25.1683C55.1354 24.541 55.9996 24.3914 56.627 24.8277C57.2543 25.2653 57.4067 26.1295 56.9676 26.7568L47.2165 40.6849C46.9478 41.0713 46.5171 41.2762 46.0809 41.2762Z" fill="#0A3B70"/>
<path fill-rule="evenodd" clip-rule="evenodd" d="M57.4223 22.3096C56.6578 22.3096 56.0374 22.9301 56.0374 23.6945C56.0374 24.459 56.6578 25.0794 57.4223 25.0794C58.1868 25.0794 58.8072 24.459 58.8072 23.6945C58.8072 22.9301 58.1868 22.3096 57.4223 22.3096ZM57.4223 27.8493C55.1317 27.8493 53.2676 25.9852 53.2676 23.6945C53.2676 21.4039 55.1317 19.5398 57.4223 19.5398C59.713 19.5398 61.577 21.4039 61.577 23.6945C61.577 25.9852 59.713 27.8493 57.4223 27.8493Z" fill="#0A3B70"/>
<path fill-rule="evenodd" clip-rule="evenodd" d="M44.4965 40.7747C43.7321 40.7747 43.1116 41.3951 43.1116 42.1596C43.1116 42.9241 43.7321 43.5445 44.4965 43.5445C45.261 43.5445 45.8814 42.9241 45.8814 42.1596C45.8814 41.3951 45.261 40.7747 44.4965 40.7747ZM44.4965 46.3143C42.2059 46.3143 40.3418 44.4503 40.3418 42.1596C40.3418 39.869 42.2059 38.0049 44.4965 38.0049C46.7872 38.0049 48.6513 39.869 48.6513 42.1596C48.6513 44.4503 46.7872 46.3143 44.4965 46.3143Z" fill="#0A3B70"/>
<path fill-rule="evenodd" clip-rule="evenodd" d="M31.5688 31.5413C30.8043 31.5413 30.1839 32.1617 30.1839 32.9262C30.1839 33.6907 30.8043 34.3111 31.5688 34.3111C32.3333 34.3111 32.9537 33.6907 32.9537 32.9262C32.9537 32.1617 32.3333 31.5413 31.5688 31.5413ZM31.5688 37.0809C29.2782 37.0809 27.4141 35.2169 27.4141 32.9262C27.4141 30.6356 29.2782 28.7715 31.5688 28.7715C33.8594 28.7715 35.7235 30.6356 35.7235 32.9262C35.7235 35.2169 33.8594 37.0809 31.5688 37.0809Z" fill="#0A3B70"/>
<path fill-rule="evenodd" clip-rule="evenodd" d="M18.645 50.0076C17.8805 50.0076 17.2601 50.6281 17.2601 51.3925C17.2601 52.157 17.8805 52.7774 18.645 52.7774C19.4094 52.7774 20.0299 52.157 20.0299 51.3925C20.0299 50.6281 19.4094 50.0076 18.645 50.0076ZM18.645 55.5473C16.3543 55.5473 14.4902 53.6832 14.4902 51.3925C14.4902 49.1019 16.3543 47.2378 18.645 47.2378C20.9356 47.2378 22.7997 49.1019 22.7997 51.3925C22.7997 53.6832 20.9356 55.5473 18.645 55.5473Z" fill="#0A3B70"/>
</g>
<defs>
<clipPath id="clip0_662_7105">
<rect width="76" height="76" fill="white"/>
</clipPath>
</defs>
</svg>
