<svg width="76" height="76" viewBox="0 0 76 76" fill="none" xmlns="http://www.w3.org/2000/svg">
<g clip-path="url(#clip0_662_5611)">
<rect x="34" y="55.2134" width="30" height="30" transform="rotate(-45 34 55.2134)" fill="#FD8282" fill-opacity="0.5"/>
<mask id="mask0_662_5611" style="mask-type:alpha" maskUnits="userSpaceOnUse" x="10" y="9" width="57" height="58">
<path d="M10 9H66.548V66.9995H10V9Z" fill="white"/>
</mask>
<g mask="url(#mask0_662_5611)">
<path fill-rule="evenodd" clip-rule="evenodd" d="M12.9762 64.023H63.5718V16.4037H12.9762V64.023ZM65.0599 66.9993H11.4881C10.665 66.9993 10 66.3343 10 65.5111V14.9156C10 14.0933 10.665 13.4275 11.4881 13.4275H65.0599C65.883 13.4275 66.548 14.0933 66.548 14.9156V65.5111C66.548 66.3343 65.883 66.9993 65.0599 66.9993Z" fill="#0A3B70"/>
<path fill-rule="evenodd" clip-rule="evenodd" d="M12.9762 28.3085H63.5718V16.4037H12.9762V28.3085ZM65.0599 31.2847H11.4881C10.665 31.2847 10 30.6198 10 29.7966V14.9156C10 14.0933 10.665 13.4275 11.4881 13.4275H65.0599C65.883 13.4275 66.548 14.0933 66.548 14.9156V29.7966C66.548 30.6198 65.883 31.2847 65.0599 31.2847Z" fill="#0A3B70"/>
<path fill-rule="evenodd" clip-rule="evenodd" d="M53.1541 20.9043C52.331 20.9043 51.666 20.2385 51.666 19.4162V10.4876C51.666 9.66533 52.331 8.99951 53.1541 8.99951C53.9773 8.99951 54.6422 9.66533 54.6422 10.4876V19.4162C54.6422 20.2385 53.9773 20.9043 53.1541 20.9043Z" fill="#0A3B70"/>
<path fill-rule="evenodd" clip-rule="evenodd" d="M23.3924 20.9043C22.5693 20.9043 21.9043 20.2385 21.9043 19.4162V10.4876C21.9043 9.66533 22.5693 8.99951 23.3924 8.99951C24.2155 8.99951 24.8805 9.66533 24.8805 10.4876V19.4162C24.8805 20.2385 24.2155 20.9043 23.3924 20.9043Z" fill="#0A3B70"/>
<path fill-rule="evenodd" clip-rule="evenodd" d="M34.0643 55.4569C33.6833 55.4569 33.3024 55.3115 33.0124 55.0206C32.4308 54.4399 32.4308 53.4977 33.0124 52.9169L45.6375 40.2893C46.2191 39.7076 47.1604 39.7076 47.7421 40.2893C48.3237 40.8709 48.3237 41.8122 47.7421 42.3939L35.1162 55.0206C34.8262 55.3115 34.4452 55.4569 34.0643 55.4569Z" fill="#0A3B70"/>
<path fill-rule="evenodd" clip-rule="evenodd" d="M34.0654 55.4565C33.6844 55.4565 33.3034 55.3111 33.0135 55.0203L28.8034 50.8119C28.2218 50.2303 28.2218 49.289 28.8034 48.7073C29.3842 48.1265 30.3264 48.1265 30.9072 48.7073L35.1172 52.9165C35.6989 53.4973 35.6989 54.4395 35.1172 55.0203C34.8273 55.3111 34.4463 55.4565 34.0654 55.4565Z" fill="#0A3B70"/>
</g>
</g>
<defs>
<clipPath id="clip0_662_5611">
<rect width="76" height="76" fill="white"/>
</clipPath>
</defs>
</svg>
