<svg width="76" height="91" viewBox="0 0 76 91" fill="none" xmlns="http://www.w3.org/2000/svg">
<rect opacity="0.5" y="58.6777" width="25" height="25" transform="rotate(-45 0 58.6777)" fill="#00A5DF"/>
<path fill-rule="evenodd" clip-rule="evenodd" d="M38.0008 30.4906C43.1068 30.4906 47.2461 26.3513 47.2461 21.2453C47.2461 16.1393 43.1068 12 38.0008 12C32.8947 12 28.7555 16.1393 28.7555 21.2453C28.7555 26.3513 32.8947 30.4906 38.0008 30.4906ZM38.0008 33.4906C44.7637 33.4906 50.2461 28.0082 50.2461 21.2453C50.2461 14.4824 44.7637 9 38.0008 9C31.2379 9 25.7555 14.4824 25.7555 21.2453C25.7555 28.0082 31.2379 33.4906 38.0008 33.4906ZM38.0008 33.4906H45.8121C51.3349 33.4906 55.8121 37.9677 55.8121 43.4906V52.7547V55.7547H52.8121H23.1895H20.1895V52.7547V43.4906C20.1895 37.9677 24.6666 33.4906 30.1895 33.4906H38.0008ZM30.1895 36.4906C26.3235 36.4906 23.1895 39.6246 23.1895 43.4906V52.7547H52.8121V43.4906C52.8121 39.6246 49.6781 36.4906 45.8121 36.4906H30.1895ZM23.1895 62.0943H26.0951V65H23.1895V62.0943ZM20.1895 59.0943H23.1895H26.0951H29.0951V62.0943V65V68H26.0951H23.1895H20.1895V65V62.0943V59.0943ZM36.5479 62.0944V65.0001H39.4536V62.0944H36.5479ZM36.5479 59.0944H33.5479V62.0944V65.0001V68.0001H36.5479H39.4536H42.4536V65.0001V62.0944V59.0944H39.4536H36.5479ZM49.9064 62.0944H52.8121V65.0001H49.9064V62.0944ZM46.9064 59.0944H49.9064H52.8121H55.8121V62.0944V65.0001V68.0001H52.8121H49.9064H46.9064V65.0001V62.0944V59.0944Z" fill="#0A3B70"/>
</svg>
