<?xml version="1.0" encoding="utf-8"?>
<!-- Generator: Adobe Illustrator 26.0.1, SVG Export Plug-In . SVG Version: 6.00 Build 0)  -->
<svg version="1.1" id="Layer_1" xmlns="http://www.w3.org/2000/svg" xmlns:xlink="http://www.w3.org/1999/xlink" x="0px" y="0px"
	 viewBox="0 0 76 76" style="enable-background:new 0 0 76 76;" xml:space="preserve">
<style type="text/css">
	.st0{fill:#C3E3F7;}
	.st1{fill:#0A3B70;}
	.st2{fill-rule:evenodd;clip-rule:evenodd;fill:#0A3B70;}
</style>
<circle class="st0" cx="61" cy="15" r="15"/>
<path class="st1" d="M20.2,53.4c-0.9,1.6-2.2,2.3-4,2.2c-2.2,0-4.4,0-6.6,0C8.5,55.6,8,55.2,8,54c0-5.8,0-11.6,0-17.4
	C8,35.4,8.4,35,9.6,35c2.3,0,4.6,0,6.8,0c1.6,0,2.8,0.6,3.7,2c0.1,0.1,0.2,0.2,0.3,0.2c0.1,0,0.2,0.1,0.3,0.1c2.4,0,4.9,0,7.3,0
	c3,0,5.8,0.7,8.3,2.3c0.6,0.4,1.2,0.9,1.8,1.4c0.2,0.2,0.5,0.4,0.7,0.5s0.6,0.2,0.9,0.1c1.9,0,3.9,0,5.8,0c2.3-0.1,4.2,1.2,4.5,3.6
	c0,0,0,0.1,0.1,0.2c0.7-0.2,1.4-0.5,2.1-0.7c1.6-0.6,3.3-1.2,4.9-1.6c3.9-1,7.4,0,10.3,2.7c0.7,0.7,0.5,1.6-0.4,2.1
	c-3,1.5-6.1,3-9.1,4.5c-3.6,1.8-7.3,3.6-10.9,5.4c-1.7,0.8-3.4,1.4-5.3,1.7c-3.1,0.5-6.4,0.1-9.3-1.1l-11.6-4.7
	C20.7,53.6,20.5,53.5,20.2,53.4z M20.6,39.7V51c4.5,1.8,9,3.6,13.5,5.4c1.8,0.7,3.8,1.1,5.8,1s3.9-0.6,5.7-1.5
	c6.3-3.1,12.5-6.2,18.8-9.3c0.1,0,0.1-0.1,0.2-0.1c-2.2-1.3-4.5-1.8-6.9-1c-2.8,0.9-5.5,1.9-8.3,2.9c-0.2,0.1-0.3,0.1-0.4,0.2
	c-0.9,0.9-2,1.2-3.2,1.2c-4.3,0-8.6,0-13,0c-0.2,0-0.4,0-0.5,0c-0.3,0-0.5-0.2-0.7-0.4s-0.3-0.5-0.3-0.8s0.1-0.5,0.3-0.8
	c0.2-0.2,0.4-0.4,0.7-0.4c0.3,0,0.6-0.1,0.8-0.1c4.3,0,8.5,0,12.8,0c0.4,0,0.9-0.1,1.3-0.3c0.3-0.2,0.5-0.5,0.6-0.8s0.1-0.7,0-1
	s-0.3-0.6-0.6-0.8s-0.6-0.3-1-0.3c-2.3,0-4.7,0-7,0c-0.4,0-0.8-0.1-1.2-0.2c-0.4-0.2-0.7-0.4-1-0.7c-2-2-4.4-3.2-7.3-3.4
	c-2.7-0.1-5.5-0.1-8.2-0.1C21.1,39.7,20.9,39.8,20.6,39.7L20.6,39.7z M10.4,53.2c2.1,0,4,0,6,0c1.2,0,1.7-0.5,1.7-1.8
	c0-4.1,0-8.2,0-12.4c0-1.2-0.5-1.7-1.7-1.7c-1.8,0-3.6,0-5.4,0c-0.2,0-0.3,0-0.5,0v15.9H10.4z"/>
<path class="st2" d="M44.3,14L42,14l0,2c-8,0.5-14.3,6.8-15,14.7l0,0h-1v2.2L60,33v-2.2h-1v-0.1c-0.6-7.8-6.9-14.1-14.7-14.7
	L44.3,14z M29.3,30.8c0.6-7,6.5-12.5,13.7-12.5s13.1,5.5,13.7,12.5H29.3z"/>
</svg>
