<svg width="76" height="76" viewBox="0 0 76 76" fill="none" xmlns="http://www.w3.org/2000/svg">
<g clip-path="url(#clip0_662_6540)">
<rect opacity="0.5" y="46" width="30" height="30" fill="#74CAF4"/>
<path fill-rule="evenodd" clip-rule="evenodd" d="M36.834 11.7394C37.6151 10.9583 38.8814 10.9583 39.6625 11.7394L57.6767 29.7535C57.6877 29.7645 57.6985 29.7757 57.7093 29.7869C57.7232 29.8 57.737 29.8133 57.7506 29.827L63.8387 35.915C64.5221 36.5985 64.5221 37.7065 63.8387 38.3899C63.1553 39.0733 62.0473 39.0733 61.3638 38.3899L58.2624 35.2885V61.2545C58.2624 62.3591 57.367 63.2545 56.2624 63.2545H20.2341C19.1295 63.2545 18.2341 62.3591 18.2341 61.2545V35.2898L15.1339 38.3899C14.4505 39.0733 13.3425 39.0733 12.659 38.3899C11.9756 37.7065 11.9756 36.5985 12.659 35.915L18.7471 29.827C18.7568 29.8173 18.7666 29.8077 18.7765 29.7982C18.7907 29.7831 18.8052 29.7682 18.8198 29.7535L36.834 11.7394ZM38.2483 15.2749L21.7341 31.7891V59.7545H54.7624V31.7891L38.2483 15.2749Z" fill="#0A3B70"/>
</g>
<defs>
<clipPath id="clip0_662_6540">
<rect width="76" height="76" fill="white"/>
</clipPath>
</defs>
</svg>
