<?xml version="1.0" encoding="utf-8"?>
<!-- Generator: Adobe Illustrator 26.0.1, SVG Export Plug-In . SVG Version: 6.00 Build 0)  -->
<svg version="1.1" id="Layer_1" xmlns="http://www.w3.org/2000/svg" xmlns:xlink="http://www.w3.org/1999/xlink" x="0px" y="0px"
	 viewBox="0 0 64 67" style="enable-background:new 0 0 64 67;" xml:space="preserve">
<style type="text/css">
	.st0{fill:#F6C3C3;}
	.st1{fill-rule:evenodd;clip-rule:evenodd;fill:#0A3B70;}
</style>
<circle class="st0" cx="49" cy="15" r="15"/>
<path class="st1" d="M22.9,64H29V41c0-0.3,0.1-0.6,0.2-0.8l18.3-28.2H4.3l18.3,28.2c0.2,0.2,0.2,0.5,0.2,0.8L22.9,64z M30.5,67h-9.2
	c-0.8,0-1.5-0.7-1.5-1.5c0,0,0,0,0,0v-24L0.2,11.4c-0.3-0.5-0.3-1.1-0.1-1.6C0.5,9.3,1,9,1.5,9h48.8c0.8,0,1.5,0.7,1.5,1.5
	c0,0.3-0.1,0.6-0.2,0.8L32,41.5v24C32,66.3,31.4,67,30.5,67z"/>
<path class="st1" d="M45.4,19.7H6.5c-0.8,0.1-1.6-0.6-1.6-1.4s0.6-1.6,1.4-1.6c0.1,0,0.2,0,0.2,0h38.9c0.8,0.1,1.5,0.8,1.4,1.6
	C46.8,19,46.2,19.6,45.4,19.7z"/>
</svg>
