<?xml version="1.0" encoding="utf-8"?>
<!-- Generator: Adobe Illustrator 26.0.1, SVG Export Plug-In . SVG Version: 6.00 Build 0)  -->
<svg version="1.1" id="Layer_1" xmlns="http://www.w3.org/2000/svg" xmlns:xlink="http://www.w3.org/1999/xlink" x="0px" y="0px"
	 viewBox="0 0 76 76" style="enable-background:new 0 0 76 76;" xml:space="preserve">
<style type="text/css">
	.st0{opacity:0.5;fill:#00A5DF;enable-background:new    ;}
	.st1{fill-rule:evenodd;clip-rule:evenodd;fill:#0A3B70;}
	.st2{fill:none;stroke:#0A3B70;stroke-width:3;stroke-linecap:round;stroke-miterlimit:10;}
</style>
<rect x="5.2" y="46.2" transform="matrix(0.7071 -0.7071 0.7071 0.7071 -36.3137 29.6863)" class="st0" width="25" height="25"/>
<path class="st1" d="M39.4,36.8v-7.1c0.8,0.2,1.5,0.7,2.1,1.3c0.3,0.3,0.7,0.5,1,0.5c0.3,0,0.6-0.1,0.9-0.3c0.6-0.5,0.7-1.3,0.2-1.9
	c-1-1.2-2.5-2.1-4.2-2.4v-1.2c0-0.8-0.6-1.4-1.4-1.4s-1.4,0.6-1.4,1.4v1.3c-3.2,0.6-5.6,3.1-5.6,6.2c0,3.1,2.4,5.6,5.6,6.2v7.1
	c-1.1-0.3-2.1-1.1-2.5-2c-0.3-0.7-1.1-1-1.8-0.6c-0.7,0.3-1,1.1-0.6,1.8c0.9,1.9,2.8,3.3,5,3.7v1.3c0,0.8,0.6,1.4,1.4,1.4
	s1.4-0.6,1.4-1.4v-1.3c3.2-0.6,5.6-3.1,5.6-6.2S42.5,37.3,39.4,36.8z M33.8,33c0-1.6,1.2-2.9,2.8-3.4v6.8C35,36,33.8,34.6,33.8,33z
	 M39.4,46.3v-6.8c1.7,0.5,2.8,1.8,2.8,3.4S41,45.8,39.4,46.3z"/>
<path class="st1" d="M38,15.5c-12.4,0-22.5,10.1-22.5,22.5c0,12.4,10.1,22.5,22.5,22.5S60.5,50.4,60.5,38
	C60.5,25.6,50.4,15.5,38,15.5z M38,63.2c-13.9,0-25.2-11.3-25.2-25.2c0-13.9,11.3-25.2,25.2-25.2c13.9,0,25.2,11.3,25.2,25.2
	C63.2,51.9,51.9,63.2,38,63.2z"/>
<line class="st2" x1="19" y1="38" x2="9.3" y2="38"/>
<line class="st2" x1="66.5" y1="38" x2="56.7" y2="38"/>
<line class="st2" x1="38" y1="66.9" x2="38" y2="57.1"/>
<line class="st2" x1="38" y1="19.3" x2="38" y2="9.5"/>
</svg>
