<?xml version="1.0" encoding="utf-8"?>
<!-- Generator: Adobe Illustrator 26.0.1, SVG Export Plug-In . SVG Version: 6.00 Build 0)  -->
<svg version="1.1" id="Layer_1" xmlns="http://www.w3.org/2000/svg" xmlns:xlink="http://www.w3.org/1999/xlink" x="0px" y="0px"
	 viewBox="0 0 88 90" style="enable-background:new 0 0 88 90;" xml:space="preserve">
<style type="text/css">
	.st0{fill:#A8EFCF;fill-opacity:0.5;}
	.st1{fill:none;stroke:#0A3B70;stroke-width:3.25;stroke-linecap:round;stroke-linejoin:round;}
</style>
<g>
	<path class="st0" d="M39.1,32.7H8.7L23.9,6.4L39.1,32.7z"/>
	<path class="st1" d="M28.7,53.6c-1.7-3-2.7-6.4-2.7-9.8c0-3.5,0.9-6.9,2.6-9.9c1.7-3,4.2-5.5,7.2-7.2c3-1.7,6.4-2.7,9.9-2.7h11.2"
		/>
	<path class="st1" d="M62.6,33.7c1.8,3,2.7,6.4,2.7,9.8c0,3.5-0.9,6.9-2.6,9.9c-1.7,3-4.2,5.5-7.2,7.2c-3,1.7-6.4,2.7-9.9,2.7H34.4"
		/>
	<path class="st1" d="M47.9,15l9,9l-9,9"/>
	<path class="st1" d="M43.4,54.3l-9,9l9,9"/>
</g>
</svg>
