<svg width="76" height="76" viewBox="0 0 76 76" fill="none" xmlns="http://www.w3.org/2000/svg">
<g clip-path="url(#clip0_662_6219)">
<rect opacity="0.5" y="58.6777" width="25" height="25" transform="rotate(-45 0 58.6777)" fill="#00A5DF"/>
<path fill-rule="evenodd" clip-rule="evenodd" d="M38.0004 51.7604C37.2463 51.7604 36.6367 51.1509 36.6367 50.3968V25.6031C36.6367 24.8504 37.2463 24.2395 38.0004 24.2395C38.7544 24.2395 39.364 24.8504 39.364 25.6031V50.3968C39.364 51.1509 38.7544 51.7604 38.0004 51.7604Z" fill="#0A3B70"/>
<path fill-rule="evenodd" clip-rule="evenodd" d="M38.0009 49.257C35.2355 49.257 32.7386 47.7652 31.6382 45.4565C31.315 44.7761 31.6041 43.962 32.2845 43.6388C32.9677 43.317 33.7764 43.6033 34.1023 44.2852C34.75 45.6488 36.2814 46.5297 38.0009 46.5297C38.755 46.5297 39.3645 47.1392 39.3645 47.8933C39.3645 48.6474 38.755 49.257 38.0009 49.257Z" fill="#0A3B70"/>
<path fill-rule="evenodd" clip-rule="evenodd" d="M37.9997 49.2571C37.2456 49.2571 36.6361 48.6476 36.6361 47.8935C36.6361 47.1394 37.2456 46.5298 37.9997 46.5298C40.3179 46.5298 42.2038 44.9207 42.2038 42.9435C42.2038 40.9662 40.3179 39.3571 37.9997 39.3571C34.1775 39.3571 31.0684 36.5248 31.0684 33.0435C31.0684 29.5635 34.1775 26.7312 37.9997 26.7312C38.7538 26.7312 39.3634 27.3421 39.3634 28.0948C39.3634 28.8489 38.7538 29.4585 37.9997 29.4585C35.6815 29.4585 33.7956 31.0676 33.7956 33.0435C33.7956 35.0221 35.6815 36.6298 37.9997 36.6298C41.822 36.6298 44.9311 39.4621 44.9311 42.9435C44.9311 46.4248 41.822 49.2571 37.9997 49.2571Z" fill="#0A3B70"/>
<path fill-rule="evenodd" clip-rule="evenodd" d="M42.4731 31.4589C42.0831 31.4589 41.6958 31.2926 41.4244 30.9707C40.6349 30.023 39.3544 29.4585 38.0004 29.4585C37.2463 29.4585 36.6367 28.8489 36.6367 28.0948C36.6367 27.3407 37.2463 26.7312 38.0004 26.7312C40.1849 26.7312 42.1963 27.638 43.519 29.2198C44.0004 29.798 43.924 30.6585 43.3472 31.1426C43.0908 31.3553 42.7813 31.4589 42.4731 31.4589Z" fill="#0A3B70"/>
<path fill-rule="evenodd" clip-rule="evenodd" d="M38.0007 15.4997C25.5943 15.4997 15.5007 25.5934 15.5007 37.9997C15.5007 50.4061 25.5943 60.4997 38.0007 60.4997C50.4071 60.4997 60.5007 50.4061 60.5007 37.9997C60.5007 25.5934 50.4071 15.4997 38.0007 15.4997ZM38.0007 63.227C24.0903 63.227 12.7734 51.9102 12.7734 37.9997C12.7734 24.0893 24.0903 12.7725 38.0007 12.7725C51.9112 12.7725 63.228 24.0893 63.228 37.9997C63.228 51.9102 51.9112 63.227 38.0007 63.227Z" fill="#0A3B70"/>
<path fill-rule="evenodd" clip-rule="evenodd" d="M66.6357 39.3637H57.0902C56.3361 39.3637 55.7266 38.7542 55.7266 38.0001C55.7266 37.246 56.3361 36.6365 57.0902 36.6365H66.6357C67.3897 36.6365 67.9993 37.246 67.9993 38.0001C67.9993 38.7542 67.3897 39.3637 66.6357 39.3637Z" fill="#0A3B70"/>
<path fill-rule="evenodd" clip-rule="evenodd" d="M18.9091 39.3637H9.36364C8.60955 39.3637 8 38.7542 8 38.0001C8 37.246 8.60955 36.6365 9.36364 36.6365H18.9091C19.6632 36.6365 20.2727 37.246 20.2727 38.0001C20.2727 38.7542 19.6632 39.3637 18.9091 39.3637Z" fill="#0A3B70"/>
<path fill-rule="evenodd" clip-rule="evenodd" d="M38.0004 68C37.2463 68 36.6367 67.3905 36.6367 66.6364V57.0909C36.6367 56.3368 37.2463 55.7273 38.0004 55.7273C38.7544 55.7273 39.364 56.3368 39.364 57.0909V66.6364C39.364 67.3905 38.7544 68 38.0004 68Z" fill="#0A3B70"/>
<path fill-rule="evenodd" clip-rule="evenodd" d="M38.0004 20.2727C37.2463 20.2727 36.6367 19.6632 36.6367 18.9091V9.36364C36.6367 8.60955 37.2463 8 38.0004 8C38.7544 8 39.364 8.60955 39.364 9.36364V18.9091C39.364 19.6632 38.7544 20.2727 38.0004 20.2727Z" fill="#0A3B70"/>
</g>
<defs>
<clipPath id="clip0_662_6219">
<rect width="76" height="76" fill="white"/>
</clipPath>
</defs>
</svg>
