<svg width="76" height="76" viewBox="0 0 76 76" fill="none" xmlns="http://www.w3.org/2000/svg">
<circle opacity="0.5" cx="61" cy="15" r="15" fill="#74CAF4"/>
<g clip-path="url(#clip0_662_6671)">
<path d="M20.201 53.4054C19.3199 55.0413 17.9583 55.67 16.1791 55.6311C13.9801 55.5826 11.7787 55.6311 9.5772 55.6311C8.43885 55.6311 8.00438 55.1991 8.00195 54.0535C8.00195 48.2379 8.00195 42.4232 8.00195 36.6093C8.00195 35.3957 8.41215 35.0098 9.60875 35.0098C11.8903 35.0098 14.1719 35.0098 16.4534 35.0098C18.0529 35.0098 19.3005 35.6238 20.1209 37.0462C20.2007 37.1338 20.2982 37.2034 20.4071 37.2502C20.5159 37.2971 20.6335 37.3202 20.7519 37.318C23.1969 37.3374 25.6403 37.3374 28.082 37.318C31.0602 37.318 33.8442 37.9855 36.349 39.636C36.9906 40.0553 37.5926 40.5322 38.1476 41.0607C38.3535 41.2742 38.6035 41.4402 38.8802 41.5471C39.1569 41.654 39.4536 41.6992 39.7495 41.6797C41.6913 41.636 43.633 41.7088 45.5748 41.653C47.8466 41.5874 49.7252 42.8277 50.0723 45.2234C50.0723 45.2598 50.1112 45.2913 50.1694 45.386C50.8684 45.1433 51.582 44.886 52.2981 44.6408C53.9388 44.0826 55.5553 43.4272 57.2301 42.9952C61.1524 42.0001 64.6112 42.9952 67.5796 45.7185C68.3078 46.3738 68.0917 47.3107 67.1524 47.7816C64.1201 49.301 61.0861 50.8124 58.0505 52.3156C54.4097 54.1238 50.7932 55.9564 47.1524 57.7379C45.4927 58.581 43.7142 59.1662 41.8782 59.4734C38.7284 59.9569 35.5064 59.5674 32.5626 58.3471L20.9316 53.6918C20.7058 53.602 20.4801 53.517 20.201 53.4054ZM20.582 39.7452V50.9903C25.0966 52.7889 29.5626 54.6311 34.0918 56.3544C35.9281 57.0858 37.8992 57.4175 39.8737 57.3275C41.8483 57.2375 43.781 56.7279 45.5432 55.8326C51.8102 52.7646 58.0578 49.653 64.3126 46.5607C64.3733 46.5316 64.4291 46.4903 64.5553 46.4175C62.3466 45.0826 60.0481 44.6311 57.65 45.3811C54.8587 46.2549 52.1184 47.2865 49.3587 48.2549C49.208 48.3062 49.0698 48.389 48.9534 48.4976C48.0675 49.3787 46.9874 49.6894 45.7592 49.6845C41.4388 49.6675 37.116 49.6845 32.7956 49.6845C32.6141 49.6898 32.4323 49.6817 32.2519 49.6602C31.9697 49.6205 31.7105 49.4828 31.5197 49.2711C31.3288 49.0594 31.2186 48.7873 31.2083 48.5025C31.2079 48.2271 31.3053 47.9606 31.4831 47.7504C31.6609 47.5402 31.9076 47.3998 32.1791 47.3544C32.4576 47.3102 32.7395 47.2916 33.0214 47.2986C37.2835 47.2986 41.5432 47.2986 45.8053 47.284C46.2437 47.2877 46.6757 47.1791 47.0602 46.9685C47.3448 46.7861 47.559 46.5123 47.6675 46.1921C47.776 45.8718 47.7724 45.5243 47.6573 45.2064C47.5453 44.8797 47.3333 44.5966 47.0515 44.3971C46.7696 44.1976 46.4322 44.0918 46.0869 44.0947C43.7447 44.0947 41.4 44.0559 39.0481 44.0947C38.6392 44.1152 38.2308 44.0441 37.8529 43.8866C37.475 43.7291 37.137 43.4893 36.8636 43.1845C34.8539 41.1748 32.4243 39.9394 29.5578 39.8204C26.8175 39.7088 24.0675 39.7573 21.3223 39.7355C21.0918 39.7476 20.8539 39.7501 20.582 39.7501V39.7452ZM10.4194 53.2379C12.4704 53.2379 14.4461 53.2379 16.4219 53.2379C17.6354 53.2379 18.1379 52.7161 18.1403 51.4855C18.1403 47.3674 18.1403 43.2501 18.1403 39.1335C18.1403 37.9054 17.6379 37.4151 16.4024 37.4103C14.5869 37.4103 12.7706 37.4103 10.9534 37.4103C10.7811 37.4103 10.6063 37.4369 10.4194 37.4515V53.2379Z" fill="#0A3B70"/>
</g>
<path fill-rule="evenodd" clip-rule="evenodd" d="M44.25 14H42V16.0307C34.0435 16.5214 27.6604 22.827 27.0481 30.75L27.0478 30.754L26.0087 30.75L26 33L59.9997 33.1319L60.0085 30.8819L58.9613 30.8779C58.9583 30.8352 58.9552 30.7926 58.9519 30.75C58.3461 22.9101 52.0899 16.6539 44.25 16.0481V14ZM29.3061 30.75C29.9376 23.7419 35.8274 18.25 43 18.25C50.1726 18.25 56.0624 23.7419 56.6939 30.75H29.3061Z" fill="#0A3B70"/>
<defs>
<clipPath id="clip0_662_6671">
<rect width="60" height="24.6869" fill="white" transform="translate(8 35)"/>
</clipPath>
</defs>
</svg>
