<?xml version="1.0" encoding="utf-8"?>
<!-- Generator: Adobe Illustrator 26.0.1, SVG Export Plug-In . SVG Version: 6.00 Build 0)  -->
<svg version="1.1" id="Layer_1" xmlns="http://www.w3.org/2000/svg" xmlns:xlink="http://www.w3.org/1999/xlink" x="0px" y="0px"
	 viewBox="0 0 76 76" style="enable-background:new 0 0 76 76;" xml:space="preserve">
<style type="text/css">
	.st0{fill:#F6C3C3;enable-background:new    ;}
	.st1{fill-rule:evenodd;clip-rule:evenodd;fill:#0A3B70;}
</style>
<rect x="45.2" y="6.2" transform="matrix(0.7071 -0.7071 0.7071 0.7071 3.6863 46.2548)" class="st0" width="25" height="25"/>
<path class="st1" d="M36.8,67C21.1,67,8.4,54.2,8.4,38.5C8.4,22.8,21.1,10,36.8,10c13,0,24.3,8.8,27.6,21.3c0.2,0.9-0.3,1.8-1.2,2
	c-0.9,0.2-1.8-0.3-2-1.2c-2.9-11.1-12.9-18.8-24.3-18.8c-13.8,0-25.1,11.3-25.1,25.1c0,13.8,11.3,25.1,25.1,25.1
	c13.8,0,25.1-11.3,25.1-25.1c0-0.9,0.7-1.7,1.7-1.7c0.9,0,1.7,0.7,1.7,1.7C65.3,54.2,52.5,67,36.8,67z"/>
<path class="st1" d="M62.8,33.5c-0.3,0-0.5-0.1-0.7-0.2l-9-4.4c-0.8-0.4-1.2-1.4-0.8-2.2c0.4-0.8,1.4-1.2,2.2-0.8l7.5,3.7l3.7-7.5
	c0.4-0.8,1.4-1.2,2.2-0.8c0.8,0.4,1.2,1.4,0.8,2.2l-4.4,9c-0.2,0.4-0.5,0.7-1,0.8C63.1,33.4,62.9,33.5,62.8,33.5z"/>
</svg>
