<svg width="76" height="76" viewBox="0 0 76 76" fill="none" xmlns="http://www.w3.org/2000/svg">
<rect opacity="0.5" y="46" width="30" height="30" fill="#00A5DF"/>
<path fill-rule="evenodd" clip-rule="evenodd" d="M17.7903 57.7735H57.7715V17.7923H17.7903V57.7735ZM59.3092 60.8489H16.2526C15.4022 60.8489 14.7148 60.1616 14.7148 59.3112V16.2545C14.7148 15.4042 15.4022 14.7168 16.2526 14.7168H59.3092C60.1596 14.7168 60.847 15.4042 60.847 16.2545V59.3112C60.847 60.1616 60.1596 60.8489 59.3092 60.8489Z" fill="#0A3B70"/>
<path fill-rule="evenodd" clip-rule="evenodd" d="M27.0169 48.5469H48.5452V27.0186H27.0169V48.5469ZM50.0829 51.6224H25.4791C24.6288 51.6224 23.9414 50.935 23.9414 50.0847V25.4809C23.9414 24.6305 24.6288 23.9431 25.4791 23.9431H50.0829C50.9333 23.9431 51.6207 24.6305 51.6207 25.4809V50.0847C51.6207 50.935 50.9333 51.6224 50.0829 51.6224Z" fill="#0A3B70"/>
<path fill-rule="evenodd" clip-rule="evenodd" d="M43.9323 17.7923C43.0819 17.7923 42.3945 17.105 42.3945 16.2546V10.1037C42.3945 9.25329 43.0819 8.56592 43.9323 8.56592C44.7826 8.56592 45.47 9.25329 45.47 10.1037V16.2546C45.47 17.105 44.7826 17.7923 43.9323 17.7923Z" fill="#0A3B70"/>
<path fill-rule="evenodd" clip-rule="evenodd" d="M31.6334 17.7923C30.7831 17.7923 30.0957 17.105 30.0957 16.2546V10.1037C30.0957 9.25329 30.7831 8.56592 31.6334 8.56592C32.4838 8.56592 33.1712 9.25329 33.1712 10.1037V16.2546C33.1712 17.105 32.4838 17.7923 31.6334 17.7923Z" fill="#0A3B70"/>
<path fill-rule="evenodd" clip-rule="evenodd" d="M43.9323 67.0004C43.0819 67.0004 42.3945 66.313 42.3945 65.4626V59.3117C42.3945 58.4613 43.0819 57.7739 43.9323 57.7739C44.7826 57.7739 45.47 58.4613 45.47 59.3117V65.4626C45.47 66.313 44.7826 67.0004 43.9323 67.0004Z" fill="#0A3B70"/>
<path fill-rule="evenodd" clip-rule="evenodd" d="M31.6334 67.0004C30.7831 67.0004 30.0957 66.313 30.0957 65.4626V59.3117C30.0957 58.4613 30.7831 57.7739 31.6334 57.7739C32.4838 57.7739 33.1712 58.4613 33.1712 59.3117V65.4626C33.1712 66.313 32.4838 67.0004 31.6334 67.0004Z" fill="#0A3B70"/>
<path fill-rule="evenodd" clip-rule="evenodd" d="M65.4641 45.4702H59.3131C58.4628 45.4702 57.7754 44.7829 57.7754 43.9325C57.7754 43.0821 58.4628 42.3948 59.3131 42.3948H65.4641C66.3145 42.3948 67.0018 43.0821 67.0018 43.9325C67.0018 44.7829 66.3145 45.4702 65.4641 45.4702Z" fill="#0A3B70"/>
<path fill-rule="evenodd" clip-rule="evenodd" d="M65.4641 33.1695H59.3131C58.4628 33.1695 57.7754 32.4821 57.7754 31.6317C57.7754 30.7814 58.4628 30.094 59.3131 30.094H65.4641C66.3145 30.094 67.0018 30.7814 67.0018 31.6317C67.0018 32.4821 66.3145 33.1695 65.4641 33.1695Z" fill="#0A3B70"/>
<path fill-rule="evenodd" clip-rule="evenodd" d="M16.2551 45.4702H10.1041C9.25378 45.4702 8.56641 44.7829 8.56641 43.9325C8.56641 43.0821 9.25378 42.3948 10.1041 42.3948H16.2551C17.1055 42.3948 17.7928 43.0821 17.7928 43.9325C17.7928 44.7829 17.1055 45.4702 16.2551 45.4702Z" fill="#0A3B70"/>
<path fill-rule="evenodd" clip-rule="evenodd" d="M16.2551 33.1695H10.1041C9.25378 33.1695 8.56641 32.4821 8.56641 31.6317C8.56641 30.7814 9.25378 30.094 10.1041 30.094H16.2551C17.1055 30.094 17.7928 30.7814 17.7928 31.6317C17.7928 32.4821 17.1055 33.1695 16.2551 33.1695Z" fill="#0A3B70"/>
</svg>
