<svg width="76" height="76" viewBox="0 0 76 76" fill="none" xmlns="http://www.w3.org/2000/svg">
<rect opacity="0.5" y="46" width="30" height="30" fill="#D1F681"/>
<path fill-rule="evenodd" clip-rule="evenodd" d="M21.25 11.625C21.25 10.8656 21.8656 10.25 22.625 10.25H53.8897C54.6491 10.25 55.2647 10.8656 55.2647 11.625V65.0356C55.2647 65.795 54.6491 66.4106 53.8897 66.4106H22.625C21.8656 66.4106 21.25 65.795 21.25 65.0356V11.625ZM24 13V63.6606H31.6715V57.2194C31.6715 56.46 32.2871 55.8444 33.0465 55.8444H43.468C44.2274 55.8444 44.843 56.46 44.843 57.2194V63.6606H52.5147V13H24ZM34.4215 58.5944V63.6606H42.093V58.5944H34.4215ZM29.1387 16.7635C28.3793 16.7635 27.7637 17.3791 27.7637 18.1385C27.7637 18.8979 28.3793 19.5135 29.1387 19.5135H47.3764C48.1358 19.5135 48.7514 18.8979 48.7514 18.1385C48.7514 17.3791 48.1358 16.7635 47.3764 16.7635H29.1387ZM27.7637 24.652C27.7637 23.8926 28.3793 23.277 29.1387 23.277H47.3764C48.1358 23.277 48.7514 23.8926 48.7514 24.652C48.7514 25.4114 48.1358 26.027 47.3764 26.027H29.1387C28.3793 26.027 27.7637 25.4114 27.7637 24.652ZM29.1387 29.7905C28.3793 29.7905 27.7637 30.4061 27.7637 31.1655C27.7637 31.9249 28.3793 32.5405 29.1387 32.5405H47.3764C48.1358 32.5405 48.7514 31.9249 48.7514 31.1655C48.7514 30.4061 48.1358 29.7905 47.3764 29.7905H29.1387ZM27.7637 37.6789C27.7637 36.9195 28.3793 36.3039 29.1387 36.3039H47.3764C48.1358 36.3039 48.7514 36.9195 48.7514 37.6789C48.7514 38.4383 48.1358 39.0539 47.3764 39.0539H29.1387C28.3793 39.0539 27.7637 38.4383 27.7637 37.6789ZM29.1387 42.8174C28.3793 42.8174 27.7637 43.433 27.7637 44.1924C27.7637 44.9518 28.3793 45.5674 29.1387 45.5674H47.3764C48.1358 45.5674 48.7514 44.9518 48.7514 44.1924C48.7514 43.433 48.1358 42.8174 47.3764 42.8174H29.1387ZM27.7637 50.7059C27.7637 49.9465 28.3793 49.3309 29.1387 49.3309H47.3764C48.1358 49.3309 48.7514 49.9465 48.7514 50.7059C48.7514 51.4653 48.1358 52.0809 47.3764 52.0809H29.1387C28.3793 52.0809 27.7637 51.4653 27.7637 50.7059Z" fill="#0A3B70"/>
</svg>
