<?xml version="1.0" encoding="utf-8"?>
<!-- Generator: Adobe Illustrator 26.0.1, SVG Export Plug-In . SVG Version: 6.00 Build 0)  -->
<svg version="1.1" id="Layer_1" xmlns="http://www.w3.org/2000/svg" xmlns:xlink="http://www.w3.org/1999/xlink" x="0px" y="0px"
	 viewBox="0 0 119 83" style="enable-background:new 0 0 119 83;" xml:space="preserve">
<style type="text/css">
	.st0{fill:#A8EFCF;}
	.st1{fill:#0A3B70;}
</style>
<circle class="st0" cx="23.5" cy="23.5" r="23.5"/>
<path class="st1" d="M18.5,16.6h84.6c3,1.3,3.6,3.7,3.5,6.8c-0.1,15.7,0,31.3-0.1,46.9c0,2.5,0.6,5.1-1.3,7.6c0.8,0,1.3,0.1,1.8,0.1
	c2.3,0,4.5,0,6.7,0c1.6,0,3.2-0.2,4.2,1.4v3.2H5.8c-0.1-0.1-0.2-0.2-0.3-0.3c-1.3-0.4-2.2-1.2-1.9-2.6C3.9,78.3,5.1,78,6.5,78
	c2.6,0,5.2,0,7.8,0c0.5,0,1.1,0,1.9-0.1c-1.7-2.4-1.2-4.9-1.2-7.3c0-15.7,0-31.4,0-47.1c-0.1-0.9-0.1-1.8,0.1-2.7
	c0.4-1.1,1-2.1,1.8-3.1C17.3,17.2,17.9,16.9,18.5,16.6z M60.7,74.3h39.4c1.9,0,1.9,0,1.9-1.9V23.4c0-1.9,0-1.9-1.9-1.9H21.5
	c-1.9,0-1.9,0-1.9,1.9v49.1c0,1.9,0,1.9,1.9,1.9H60.7z"/>
<path class="st1" d="M58.5,60.1v-9.5c-2.1-1.4-4.3-2.5-5.9-4.1c-4.8-4.8-2.7-12.2,2.9-15c0.4-0.2,0.7-0.4,1.2-0.5
	c1.5-0.2,2-1,1.9-2.5c0-0.6,0.2-1.1,0.6-1.5c0.4-0.4,1-0.6,1.5-0.6c0.6,0,1.2,0.2,1.6,0.7c0.4,0.4,0.7,1,0.7,1.6
	c-0.1,1.4,0.5,1.9,1.8,2.4c1.5,0.7,3,1.6,4.2,2.7c0.3,0.2,0.5,0.4,0.7,0.7c0.2,0.3,0.3,0.6,0.3,0.9c0,0.3,0,0.7-0.1,1
	c-0.1,0.3-0.3,0.6-0.5,0.8c-0.5,0.4-1.1,0.6-1.7,0.6c-0.6,0-1.2-0.3-1.7-0.7c-0.8-0.6-1.6-1.2-2.7-2.1v10.3c2,1.3,4.2,2.2,5.8,3.8
	c1.1,1.1,1.9,2.4,2.3,3.9c0.4,1.5,0.5,3,0.2,4.5c-0.3,1.5-1,2.9-1.9,4.1c-1,1.2-2.2,2.1-3.6,2.7c-0.4,0.2-0.7,0.4-1.2,0.5
	c-1.5,0.1-1.8,0.9-1.7,2.2c0,0.6-0.2,1.2-0.7,1.6c-0.4,0.4-1,0.7-1.6,0.7c-0.3,0-0.6-0.1-0.9-0.2c-0.3-0.1-0.5-0.3-0.7-0.5
	c-0.2-0.2-0.4-0.5-0.5-0.8c-0.1-0.3-0.2-0.6-0.1-0.9c0.1-1.3-0.4-1.9-1.7-2.3c-1.3-0.4-2.6-1.1-3.6-2.1c-1.1-0.9-1.9-2.1-2.5-3.4
	c-0.1-0.2-0.2-0.5-0.2-0.7c0-0.3,0-0.5,0.1-0.7c0.1-0.2,0.2-0.5,0.4-0.7c0.2-0.2,0.4-0.3,0.6-0.4c0.4-0.2,0.8-0.3,1.2-0.3
	c0.4,0,0.8,0,1.2,0.2c0.7,0.3,1,1.2,1.6,1.7c0.8,0.7,1.6,1.4,2.5,2.1L58.5,60.1z M58.5,44.7v-9.1c-1.9,0-4,2.6-4,4.8
	C54.5,42.6,56.4,44.8,58.5,44.7L58.5,44.7z M63.1,60.3c2.2-0.2,3.9-3,4-4.5c0-1.2-0.4-2.3-1.1-3.2c-0.7-0.9-1.7-1.5-2.9-1.8V60.3z"
	/>
</svg>
