<svg width="76" height="76" viewBox="0 0 76 76" fill="none" xmlns="http://www.w3.org/2000/svg">
<g clip-path="url(#clip0_662_6458)">
<rect opacity="0.5" y="46" width="30" height="30" fill="#A8EFCF"/>
<path fill-rule="evenodd" clip-rule="evenodd" d="M16.0854 46.8107L23.9633 51.1874C24.2108 51.3255 24.4158 51.5304 24.5539 51.7789L28.9323 59.6576L30.1839 58.406L29.2189 51.6607C29.1529 51.1874 29.3119 50.7097 29.6498 50.3718L41.4327 38.5863C41.7723 38.2441 42.2613 38.0834 42.7364 38.1589C43.2132 38.2319 43.6292 38.5272 43.8542 38.9563L54.6773 59.6202L56.9052 57.3941L50.6663 30.3636C50.5499 29.8538 50.7019 29.3187 51.0737 28.9479L62.8566 17.1632C63.429 16.59 63.7451 15.8317 63.7451 15.0257C63.7451 14.2197 63.429 13.4597 62.8566 12.8864C61.6779 11.7087 59.7567 11.7087 58.5789 12.8864L46.7951 24.6693C46.4243 25.0393 45.8849 25.187 45.3794 25.0767L18.3489 18.8378L16.1228 21.0639L36.785 31.8888C37.2141 32.1138 37.5094 32.5298 37.5823 33.0066C37.6553 33.4852 37.4955 33.969 37.155 34.3104L25.3712 46.0932C25.0351 46.4311 24.5582 46.5953 24.0823 46.5241L17.3353 45.5591L16.0854 46.8107ZM54.29 63.6773C54.2135 63.6773 54.138 63.6712 54.0598 63.659C53.5821 63.5861 53.1678 63.2916 52.9437 62.8617L42.1206 42.1978L32.3362 51.983L33.3012 58.7282C33.3681 59.2016 33.2091 59.6793 32.8704 60.018L29.6567 63.2317C29.3214 63.5687 28.8446 63.7363 28.3721 63.6616C27.8996 63.5965 27.4853 63.3116 27.2534 62.8947L22.108 53.6332L12.8483 48.4896C12.4314 48.2577 12.1482 47.8434 12.0814 47.3718C12.0145 46.8993 12.1743 46.4233 12.5113 46.0863L15.7232 42.8726C16.062 42.5356 16.5345 42.3767 17.0131 42.4418L23.76 43.4068L33.5435 33.6225L12.8813 22.7984C12.4514 22.5744 12.1569 22.1583 12.084 21.6797C12.011 21.202 12.17 20.7182 12.5113 20.3769L16.795 16.0932C17.1659 15.7223 17.7053 15.5729 18.2108 15.6867L45.2413 21.9255L56.4292 10.7376C58.7926 8.37164 62.6429 8.37164 65.0054 10.7376C66.1536 11.885 66.7851 13.4076 66.7851 15.0257C66.7851 16.6438 66.1536 18.1664 65.0054 19.3129L53.8175 30.5017L60.0563 57.5322C60.1745 58.0429 60.0207 58.5788 59.6498 58.948L55.3652 63.2317C55.0769 63.5192 54.6886 63.6773 54.29 63.6773Z" fill="#0A3B70"/>
<mask id="mask0_662_6458" style="mask-type:alpha" maskUnits="userSpaceOnUse" x="33" y="53" width="14" height="13">
<path d="M33.3398 53.2881H46.0512V65.9999H33.3398V53.2881Z" fill="white"/>
</mask>
<g mask="url(#mask0_662_6458)">
<path fill-rule="evenodd" clip-rule="evenodd" d="M34.859 66.0003C34.4707 66.0003 34.0816 65.8509 33.7854 65.5539C33.1913 64.9607 33.1913 63.9983 33.7854 63.4051L43.456 53.7337C44.0501 53.1396 45.0116 53.1396 45.6057 53.7337C46.1998 54.3278 46.1998 55.2892 45.6057 55.8833L35.9342 65.5539C35.6372 65.8509 35.2481 66.0003 34.859 66.0003Z" fill="#0A3B70"/>
</g>
<mask id="mask1_662_6458" style="mask-type:alpha" maskUnits="userSpaceOnUse" x="41" y="58" width="9" height="8">
<path d="M41.9355 58.6609H49.2749V65.9998H41.9355V58.6609Z" fill="white"/>
</mask>
<g mask="url(#mask1_662_6458)">
<path fill-rule="evenodd" clip-rule="evenodd" d="M43.4547 66.0002C43.0664 66.0002 42.6773 65.8508 42.3811 65.5538C41.787 64.9606 41.787 63.9982 42.3811 63.405L46.6805 59.1065C47.2737 58.5124 48.2361 58.5124 48.8293 59.1065C49.4234 59.6997 49.4234 60.6621 48.8293 61.2553L44.5299 65.5538C44.2329 65.8508 43.8438 66.0002 43.4547 66.0002Z" fill="#0A3B70"/>
</g>
<path fill-rule="evenodd" clip-rule="evenodd" d="M11.2622 42.4054C10.8731 42.4054 10.4839 42.256 10.1878 41.959C9.59366 41.3657 9.59366 40.4034 10.1878 39.8101L19.8601 30.137C20.4542 29.5429 21.4156 29.5429 22.0097 30.137C22.6038 30.7311 22.6038 31.6926 22.0097 32.2867L12.3366 41.959C12.0404 42.256 11.6504 42.4054 11.2622 42.4054Z" fill="#0A3B70"/>
<path fill-rule="evenodd" clip-rule="evenodd" d="M11.2622 33.806C10.8731 33.806 10.4839 33.6575 10.1878 33.3604C9.59366 32.7672 9.59366 31.8048 10.1878 31.2116L14.488 26.9122C15.0812 26.319 16.0436 26.319 16.6368 26.9122C17.2309 27.5063 17.2309 28.4678 16.6368 29.0619L12.3366 33.3604C12.0404 33.6575 11.6504 33.806 11.2622 33.806Z" fill="#0A3B70"/>
</g>
<defs>
<clipPath id="clip0_662_6458">
<rect width="76" height="76" fill="white"/>
</clipPath>
</defs>
</svg>
