<svg id="Layer_1" data-name="Layer 1" xmlns="http://www.w3.org/2000/svg" xmlns:xlink="http://www.w3.org/1999/xlink" viewBox="0 0 64 67"><defs><style>.cls-1{fill:none;clip-rule:evenodd;}.cls-2{fill:#fd8282;fill-opacity:0.5;}.cls-3{fill:#0a3b70;fill-rule:evenodd;}.cls-4{clip-path:url(#clip-path);}</style><clipPath id="clip-path" transform="translate(-12)"><path class="cls-1" d="M42.53,67H33.37a1.52,1.52,0,0,1-1.53-1.53v-24L12.25,11.36a1.53,1.53,0,0,1-.07-1.56A1.55,1.55,0,0,1,13.53,9H62.37a1.53,1.53,0,0,1,1.28,2.36L44.05,41.51v24A1.52,1.52,0,0,1,42.53,67Z"/></clipPath></defs><circle class="cls-2" cx="49" cy="15" r="15"/><path class="cls-3" d="M34.89,64H41V41.05a1.55,1.55,0,0,1,.25-.83L59.56,12.05H16.34L34.65,40.22a1.54,1.54,0,0,1,.24.83Zm7.64,3H33.37a1.52,1.52,0,0,1-1.53-1.53v-24L12.25,11.36a1.53,1.53,0,0,1-.07-1.56A1.55,1.55,0,0,1,13.53,9H62.37a1.53,1.53,0,0,1,1.28,2.36L44.05,41.51v24A1.52,1.52,0,0,1,42.53,67Z" transform="translate(-12)"/><path class="cls-3" d="M57.41,19.68H18.49a1.53,1.53,0,1,1,0-3.05H57.41a1.53,1.53,0,0,1,0,3.05Z" transform="translate(-12)"/><g class="cls-4"><path class="cls-3" d="M57.41,67H18.49C17.64,67,17,55.74,17,41.82s.68-25.19,1.53-25.19H57.41c.84,0,1.52,11.26,1.52,25.19S58.25,67,57.41,67Z" transform="translate(-12)"/></g></svg>