<?xml version="1.0" encoding="utf-8"?>
<!-- Generator: Adobe Illustrator 26.0.1, SVG Export Plug-In . SVG Version: 6.00 Build 0)  -->
<svg version="1.1" id="Layer_1" xmlns="http://www.w3.org/2000/svg" xmlns:xlink="http://www.w3.org/1999/xlink" x="0px" y="0px"
	 viewBox="0 0 76 76" style="enable-background:new 0 0 76 76;" xml:space="preserve">
<style type="text/css">
	.st0{fill:#EBFAC6;}
	.st1{fill-rule:evenodd;clip-rule:evenodd;fill:#0A3B70;}
</style>
<rect y="46" class="st0" width="30" height="30"/>
<path class="st1" d="M21.2,11.6c0-0.8,0.6-1.4,1.4-1.4h31.3c0.8,0,1.4,0.6,1.4,1.4V65c0,0.8-0.6,1.4-1.4,1.4H22.6
	c-0.8,0-1.4-0.6-1.4-1.4V11.6z M24,13v50.7h7.7v-6.4c0-0.8,0.6-1.4,1.4-1.4h10.4c0.8,0,1.4,0.6,1.4,1.4v6.4h7.7V13H24z M34.4,58.6
	v5.1h7.7v-5.1H34.4z M29.1,16.8c-0.8,0-1.4,0.6-1.4,1.4s0.6,1.4,1.4,1.4h18.2c0.8,0,1.4-0.6,1.4-1.4s-0.6-1.4-1.4-1.4H29.1z
	 M27.8,24.7c0-0.8,0.6-1.4,1.4-1.4h18.2c0.8,0,1.4,0.6,1.4,1.4c0,0.8-0.6,1.4-1.4,1.4H29.1C28.4,26,27.8,25.4,27.8,24.7z M29.1,29.8
	c-0.8,0-1.4,0.6-1.4,1.4c0,0.8,0.6,1.4,1.4,1.4h18.2c0.8,0,1.4-0.6,1.4-1.4c0-0.8-0.6-1.4-1.4-1.4H29.1z M27.8,37.7
	c0-0.8,0.6-1.4,1.4-1.4h18.2c0.8,0,1.4,0.6,1.4,1.4c0,0.8-0.6,1.4-1.4,1.4H29.1C28.4,39.1,27.8,38.4,27.8,37.7z M29.1,42.8
	c-0.8,0-1.4,0.6-1.4,1.4c0,0.8,0.6,1.4,1.4,1.4h18.2c0.8,0,1.4-0.6,1.4-1.4c0-0.8-0.6-1.4-1.4-1.4H29.1z M27.8,50.7
	c0-0.8,0.6-1.4,1.4-1.4h18.2c0.8,0,1.4,0.6,1.4,1.4c0,0.8-0.6,1.4-1.4,1.4H29.1C28.4,52.1,27.8,51.5,27.8,50.7z"/>
</svg>
