<?xml version="1.0" encoding="utf-8"?>
<!-- Generator: Adobe Illustrator 26.0.1, SVG Export Plug-In . SVG Version: 6.00 Build 0)  -->
<svg version="1.1" id="Layer_1" xmlns="http://www.w3.org/2000/svg" xmlns:xlink="http://www.w3.org/1999/xlink" x="0px" y="0px"
	 viewBox="0 0 80 76" style="enable-background:new 0 0 80 76;" xml:space="preserve">
<style type="text/css">
	.st0{fill:#F2FEDA;}
	.st1{fill-rule:evenodd;clip-rule:evenodd;fill:#0A3B70;}
	.st2{fill:none;stroke:#0A3B70;stroke-width:3;stroke-miterlimit:10;}
</style>
<g>
	<g>
		<polygon class="st0" points="63.1,1 47.3,27.2 78.9,27 		"/>
		<path class="st1" d="M69.5,39.4h-9c-0.8,0-1.5-0.6-1.5-1.4s0.7-1.4,1.5-1.4h9c0.8,0,1.5,0.6,1.5,1.4S70.3,39.4,69.5,39.4z"/>
		<path class="st1" d="M54.4,25.2c-0.4,0-0.7-0.1-1-0.4c-0.6-0.5-0.6-1.4,0-2l6.3-6.1c0.6-0.5,1.5-0.5,2.1,0s0.6,1.4,0,2l-6.3,6.1
			C55.2,25.1,54.8,25.2,54.4,25.2z"/>
		<g>
			<path class="st1" d="M39.6,19.4c-0.8,0-1.5-0.6-1.5-1.4V9.4c0-0.8,0.7-1.4,1.5-1.4s1.5,0.6,1.5,1.4V18
				C41.1,18.7,40.5,19.4,39.6,19.4z"/>
		</g>
		<path class="st1" d="M24.9,25.2c-0.4,0-0.7-0.1-1-0.4l-6.3-6.1c-0.6-0.5-0.6-1.4,0-2c0.6-0.5,1.5-0.5,2.1,0l6.3,6.1
			c0.6,0.5,0.6,1.4,0,2C25.6,25.1,25.2,25.2,24.9,25.2z"/>
		<g>
			<path class="st1" d="M18.8,39.4h-9c-0.8,0-1.5-0.6-1.5-1.4s0.7-1.4,1.5-1.4h9c0.8,0,1.5,0.6,1.5,1.4S19.6,39.4,18.8,39.4z"/>
		</g>
		<path class="st1" d="M18.5,59.6c-0.4,0-0.7-0.1-1-0.4c-0.6-0.5-0.6-1.4,0-2l6.3-6.1c0.6-0.5,1.5-0.5,2.1,0s0.6,1.4,0,2l-6.3,6.1
			C19.3,59.5,18.9,59.6,18.5,59.6z"/>
		<path class="st1" d="M39.6,68c-0.8,0-1.5-0.6-1.5-1.4V58c0-0.8,0.7-1.4,1.5-1.4s1.5,0.6,1.5,1.4v8.6C41.1,67.4,40.5,68,39.6,68z"
			/>
		<path class="st1" d="M60.8,59.6c-0.4,0-0.7-0.1-1-0.4l-6.3-6.1c-0.6-0.5-0.6-1.4,0-2c0.6-0.5,1.5-0.5,2.1,0l6.3,6.1
			c0.6,0.5,0.6,1.4,0,2C61.5,59.5,61.1,59.6,60.8,59.6z"/>
	</g>
</g>
<circle class="st2" cx="39.6" cy="38" r="12.3"/>
</svg>
