<?xml version="1.0" encoding="utf-8"?>
<!-- Generator: Adobe Illustrator 26.0.1, SVG Export Plug-In . SVG Version: 6.00 Build 0)  -->
<svg version="1.1" id="Layer_1" xmlns="http://www.w3.org/2000/svg" xmlns:xlink="http://www.w3.org/1999/xlink" x="0px" y="0px"
	 viewBox="0 0 76 76" style="enable-background:new 0 0 76 76;" xml:space="preserve">
<style type="text/css">
	.st0{fill:#FD8282;fill-opacity:0.5;}
	.st1{fill-rule:evenodd;clip-rule:evenodd;fill:#0A3B70;}
	.st2{fill:none;stroke:#0A3B70;stroke-width:3;stroke-linecap:round;stroke-miterlimit:10;}
</style>
<rect x="40.2" y="40.2" transform="matrix(0.7071 -0.7071 0.7071 0.7071 -22.8702 55.2133)" class="st0" width="30" height="30"/>
<path class="st1" d="M65.1,13.4H54.6v-2.9C54.6,9.7,54,9,53.2,9c-0.8,0-1.5,0.7-1.5,1.5v2.9H24.9v-2.9c0-0.8-0.7-1.5-1.5-1.5
	c-0.8,0-1.5,0.7-1.5,1.5v2.9H11.5c-0.8,0-1.5,0.7-1.5,1.5v50.6c0,0.8,0.7,1.5,1.5,1.5h53.6c0.8,0,1.5-0.7,1.5-1.5V14.9
	C66.5,14.1,65.9,13.4,65.1,13.4z M63.6,64H13V31.3h50.6V64z M63.6,28.3H13V16.4h8.9v3c0,0.8,0.7,1.5,1.5,1.5c0.8,0,1.5-0.7,1.5-1.5
	v-3h26.8v3c0,0.8,0.7,1.5,1.5,1.5c0.8,0,1.5-0.7,1.5-1.5v-3h8.9V28.3z"/>
<line class="st2" x1="29.5" y1="49.4" x2="33.7" y2="53.6"/>
<line class="st2" x1="47.6" y1="40.4" x2="34" y2="53.9"/>
</svg>
