<?xml version="1.0" encoding="utf-8"?>
<!-- Generator: Adobe Illustrator 26.0.1, SVG Export Plug-In . SVG Version: 6.00 Build 0)  -->
<svg version="1.1" id="Layer_1" xmlns="http://www.w3.org/2000/svg" xmlns:xlink="http://www.w3.org/1999/xlink" x="0px" y="0px"
	 viewBox="0 0 76 76" style="enable-background:new 0 0 76 76;" xml:space="preserve">
<style type="text/css">
	.st0{fill:#DAF5E7;}
	.st1{fill:#FFFFFF;filter:url(#Adobe_OpacityMaskFilter);}
	.st2{mask:url(#mask0_662_5693_00000147187087531760951460000011847644236898772634_);}
	.st3{fill-rule:evenodd;clip-rule:evenodd;fill:#0A3B70;}
</style>
<circle class="st0" cx="15" cy="15" r="15"/>
<defs>
	<filter id="Adobe_OpacityMaskFilter" filterUnits="userSpaceOnUse" x="20.5" y="18.2" width="36.2" height="45.3">
		<feColorMatrix  type="matrix" values="1 0 0 0 0  0 1 0 0 0  0 0 1 0 0  0 0 0 1 0"/>
	</filter>
</defs>
<mask maskUnits="userSpaceOnUse" x="20.5" y="18.2" width="36.2" height="45.3" id="mask0_662_5693_00000147187087531760951460000011847644236898772634_">
	<path class="st1" d="M20.5,18.2h36.2v45.3H20.5V18.2z"/>
</mask>
<g class="st2">
	<path class="st3" d="M24.8,21c-0.8,0-1.5,0.7-1.5,1.5v36.7c0,0.8,0.7,1.5,1.5,1.5h27.6c0.8,0,1.5-0.7,1.5-1.5V22.5
		c0-0.8-0.7-1.5-1.5-1.5H24.8z M52.3,63.5H24.8c-2.4,0-4.3-1.9-4.3-4.3V22.5c0-2.4,1.9-4.3,4.3-4.3h27.6c2.4,0,4.3,1.9,4.3,4.3v36.7
		C56.6,61.5,54.7,63.5,52.3,63.5z"/>
</g>
<path class="st3" d="M46.9,68c-0.8,0-1.4-0.6-1.4-1.4v-4.5c0-0.8,0.6-1.4,1.4-1.4c0.8,0,1.4,0.6,1.4,1.4v4.5
	C48.3,67.4,47.7,68,46.9,68z"/>
<path class="st3" d="M30.2,68c-0.8,0-1.4-0.6-1.4-1.4v-4.5c0-0.8,0.6-1.4,1.4-1.4c0.8,0,1.4,0.6,1.4,1.4v4.5
	C31.6,67.4,31,68,30.2,68z"/>
<path class="st3" d="M46.9,21c-0.8,0-1.4-0.6-1.4-1.4v-6.1c0-0.9-0.9-1.6-1.9-1.6h-10c-1.1,0-1.9,0.7-1.9,1.6v6.1
	c0,0.8-0.6,1.4-1.4,1.4s-1.4-0.6-1.4-1.4v-6.1c0-2.4,2.1-4.4,4.7-4.4h10c2.6,0,4.7,2,4.7,4.4v6.1C48.3,20.4,47.7,21,46.9,21z"/>
<path class="st3" d="M41.6,12.6h-6.1c-1.2,0-2.1-0.9-2.1-2.1c0-1.2,0.9-2.1,2.1-2.1h6.1c1.2,0,2.1,0.9,2.1,2.1
	C43.7,11.6,42.8,12.6,41.6,12.6z"/>
<path class="st3" d="M30.2,54.4c-0.8,0-1.4-0.6-1.4-1.4V28.7c0-0.8,0.6-1.4,1.4-1.4c0.8,0,1.4,0.6,1.4,1.4v24.3
	C31.6,53.7,31,54.4,30.2,54.4z"/>
<path class="st3" d="M38.6,54.4c-0.8,0-1.4-0.6-1.4-1.4V28.7c0-0.8,0.6-1.4,1.4-1.4s1.4,0.6,1.4,1.4v24.3
	C40,53.7,39.3,54.4,38.6,54.4z"/>
<path class="st3" d="M46.9,54.4c-0.8,0-1.4-0.6-1.4-1.4V28.7c0-0.8,0.6-1.4,1.4-1.4c0.8,0,1.4,0.6,1.4,1.4v24.3
	C48.3,53.7,47.7,54.4,46.9,54.4z"/>
</svg>
