<?xml version="1.0" encoding="utf-8"?>
<!-- Generator: Adobe Illustrator 26.0.1, SVG Export Plug-In . SVG Version: 6.00 Build 0)  -->
<svg version="1.1" id="Layer_1" xmlns="http://www.w3.org/2000/svg" xmlns:xlink="http://www.w3.org/1999/xlink" x="0px" y="0px"
	 viewBox="0 0 76 91" style="enable-background:new 0 0 76 91;" xml:space="preserve">
<style type="text/css">
	.st0{fill:#94D1EE;}
	.st1{fill-rule:evenodd;clip-rule:evenodd;fill:#0A3B70;}
</style>
<rect x="5.2" y="46.2" transform="matrix(0.7071 -0.7071 0.7071 0.7071 -36.3137 29.6863)" class="st0" width="25" height="25"/>
<path class="st1" d="M38,30.5c5.1,0,9.2-4.1,9.2-9.2S43.1,12,38,12c-5.1,0-9.2,4.1-9.2,9.2S32.9,30.5,38,30.5z M38,33.5
	c6.8,0,12.2-5.5,12.2-12.2S44.8,9,38,9s-12.2,5.5-12.2,12.2S31.2,33.5,38,33.5z M38,33.5h7.8c5.5,0,10,4.5,10,10v9.3v3h-3H23.2h-3
	v-3v-9.3c0-5.5,4.5-10,10-10H38z M30.2,36.5c-3.9,0-7,3.1-7,7v9.3h29.6v-9.3c0-3.9-3.1-7-7-7H30.2z M23.2,62.1h2.9V65h-2.9V62.1z
	 M20.2,59.1h3h2.9h3v3V65v3h-3h-2.9h-3v-3v-2.9V59.1z M36.5,62.1V65h2.9v-2.9H36.5z M36.5,59.1h-3v3V65v3h3h2.9h3v-3v-2.9v-3h-3
	H36.5z M49.9,62.1h2.9V65h-2.9V62.1z M46.9,59.1h3h2.9h3v3V65v3h-3h-2.9h-3v-3v-2.9V59.1z"/>
</svg>
