<svg width="76" height="76" viewBox="0 0 76 76" fill="none" xmlns="http://www.w3.org/2000/svg">
<circle cx="61" cy="15" r="15" fill="#FD8282" fill-opacity="0.5"/>
<path fill-rule="evenodd" clip-rule="evenodd" d="M38.4998 13C24.4389 13 13 24.4389 13 38.4998C13 52.5608 24.4389 63.9997 38.4998 63.9997C52.5608 63.9997 63.9997 52.5608 63.9997 38.4998C63.9997 24.4389 52.5608 13 38.4998 13ZM38.4998 66.9997C22.7844 66.9997 10 54.2153 10 38.4998C10 22.7844 22.7844 10 38.4998 10C54.2153 10 66.9997 22.7844 66.9997 38.4998C66.9997 54.2153 54.2153 66.9997 38.4998 66.9997Z" fill="#0A3B70"/>
<path fill-rule="evenodd" clip-rule="evenodd" d="M38.5 44.8754C37.6705 44.8754 37 44.2049 37 43.3754V23.8755C37 23.046 37.6705 22.3755 38.5 22.3755C39.3295 22.3755 40 23.046 40 23.8755V43.3754C40 44.2049 39.3295 44.8754 38.5 44.8754Z" fill="#0A3B70"/>
<path fill-rule="evenodd" clip-rule="evenodd" d="M40.75 50.8752C40.75 49.6332 39.742 48.6252 38.5 48.6252C37.258 48.6252 36.25 49.6332 36.25 50.8752C36.25 52.1187 37.258 53.1252 38.5 53.1252C39.742 53.1252 40.75 52.1187 40.75 50.8752Z" fill="#0A3B70"/>
</svg>
