<?xml version="1.0" encoding="utf-8"?>
<!-- Generator: Adobe Illustrator 26.0.1, SVG Export Plug-In . SVG Version: 6.00 Build 0)  -->
<svg version="1.1" id="Layer_1" xmlns="http://www.w3.org/2000/svg" xmlns:xlink="http://www.w3.org/1999/xlink" x="0px" y="0px"
	 viewBox="0 0 76 76" style="enable-background:new 0 0 76 76;" xml:space="preserve">
<style type="text/css">
	.st0{fill:#DAF4E8;}
	.st1{fill-rule:evenodd;clip-rule:evenodd;fill:#0A3B70;}
	.st2{fill:none;stroke:#0A3B70;stroke-width:3;stroke-miterlimit:10;}
</style>
<rect y="46" class="st0" width="30" height="30"/>
<path class="st1" d="M16.1,46.8l7.9,4.4c0.2,0.1,0.5,0.3,0.6,0.6l4.4,7.9l1.3-1.3l-1-6.7c-0.1-0.5,0.1-1,0.4-1.3l11.8-11.8
	c0.3-0.3,0.8-0.5,1.3-0.4s0.9,0.4,1.1,0.8l10.8,20.7l2.2-2.2l-6.2-27c-0.1-0.5,0-1,0.4-1.4l11.8-11.8c0.6-0.6,0.9-1.3,0.9-2.1
	s-0.3-1.6-0.9-2.1c-1.2-1.2-3.1-1.2-4.3,0L46.8,24.7c-0.4,0.4-0.9,0.5-1.4,0.4l-27-6.2l-2.2,2.2l20.7,10.8c0.4,0.2,0.7,0.6,0.8,1.1
	s-0.1,1-0.4,1.3L25.4,46.1c-0.3,0.3-0.8,0.5-1.3,0.4l-6.7-1L16.1,46.8z M54.3,63.7c-0.1,0-0.2,0-0.2,0c-0.5-0.1-0.9-0.4-1.1-0.8
	L42.1,42.2L32.3,52l1,6.7c0.1,0.5-0.1,1-0.4,1.3l-3.2,3.2c-0.3,0.3-0.8,0.5-1.3,0.4s-0.9-0.3-1.1-0.8l-5.1-9.3l-9.3-5.1
	c-0.4-0.2-0.7-0.6-0.8-1.1s0.1-0.9,0.4-1.3l3.2-3.2c0.3-0.3,0.8-0.5,1.3-0.4l6.7,1l9.8-9.8L12.9,22.8c-0.4-0.2-0.7-0.6-0.8-1.1
	s0.1-1,0.4-1.3l4.3-4.3c0.4-0.4,0.9-0.5,1.4-0.4l27,6.2l11.2-11.2c2.4-2.4,6.2-2.4,8.6,0c1.1,1.1,1.8,2.7,1.8,4.3s-0.6,3.1-1.8,4.3
	L53.8,30.5l6.2,27c0.1,0.5,0,1-0.4,1.4l-4.3,4.3C55.1,63.5,54.7,63.7,54.3,63.7z"/>
<line class="st2" x1="35.2" y1="63.8" x2="45.1" y2="55.1"/>
<line class="st2" x1="43.8" y1="63.8" x2="47.7" y2="60.3"/>
<line class="st2" x1="11.9" y1="40.5" x2="21.6" y2="31.3"/>
<line class="st2" x1="11.6" y1="31.6" x2="15.7" y2="27.8"/>
</svg>
