<?xml version="1.0" encoding="utf-8"?>
<!-- Generator: Adobe Illustrator 26.0.1, SVG Export Plug-In . SVG Version: 6.00 Build 0)  -->
<svg version="1.1" id="Layer_1" xmlns="http://www.w3.org/2000/svg" xmlns:xlink="http://www.w3.org/1999/xlink" x="0px" y="0px"
	 viewBox="0 0 77 77" style="enable-background:new 0 0 77 77;" xml:space="preserve">
<style type="text/css">
	.st0{fill:#C3E3F7;}
	.st1{fill-rule:evenodd;clip-rule:evenodd;fill:#0A3B70;}
	.st2{fill:#FFFFFF;filter:url(#Adobe_OpacityMaskFilter);}
	.st3{mask:url(#mask0_662_5630_00000159443872145416786420000015830682243057560225_);}
</style>
<circle class="st0" cx="15" cy="15" r="15"/>
<path class="st1" d="M38,53.6c-6.2,0-11.8-3.7-14.3-9.3c-0.3-0.7,0-1.5,0.7-1.9c0.7-0.3,1.6,0,1.9,0.7c2,4.6,6.6,7.6,11.7,7.6
	c5.1,0,9.6-3,11.7-7.6c0.3-0.7,1.1-1,1.9-0.7c0.7,0.3,1,1.1,0.7,1.9C49.8,49.9,44.2,53.6,38,53.6z"/>
<path class="st1" d="M47.9,35.2c0-1.6-1.3-2.8-2.8-2.8s-2.8,1.3-2.8,2.8c0,1.6,1.3,2.8,2.8,2.8S47.9,36.8,47.9,35.2z"/>
<path class="st1" d="M28.1,35.2c0-1.6,1.3-2.8,2.8-2.8c1.6,0,2.8,1.3,2.8,2.8c0,1.6-1.3,2.8-2.8,2.8C29.4,38,28.1,36.8,28.1,35.2z"
	/>
<path class="st1" d="M37.1,29.7c-3.1,0-5.6-2.5-5.6-5.6c0-2.4,1.9-4.3,4.3-4.3c0.8,0,1.4,0.6,1.4,1.4c0,0.8-0.6,1.4-1.4,1.4
	c-0.8,0-1.5,0.7-1.5,1.5c0,1.5,1.2,2.7,2.7,2.7c2.5,0,4.5-2,4.5-4.5c0-2.3-1.1-4.4-2.9-5.7c-0.6-0.5-0.8-1.3-0.3-2
	c0.5-0.6,1.3-0.8,2-0.3c2.6,1.9,4.1,4.9,4.1,8C44.5,26.4,41.2,29.7,37.1,29.7z"/>
<defs>
	<filter id="Adobe_OpacityMaskFilter" filterUnits="userSpaceOnUse" x="9" y="14" width="58" height="48.1">
		<feColorMatrix  type="matrix" values="1 0 0 0 0  0 1 0 0 0  0 0 1 0 0  0 0 0 1 0"/>
	</filter>
</defs>
<mask maskUnits="userSpaceOnUse" x="9" y="14" width="58" height="48.1" id="mask0_662_5630_00000159443872145416786420000015830682243057560225_">
	<path class="st2" d="M9,14h58v48.1H9V14z"/>
</mask>
<g class="st3">
	<path class="st1" d="M18,45c3,8.5,11,14.2,20,14.2c9.1,0,17.1-5.7,20.1-14.3c0,0,0,0,0,0c0.1-0.6,0.6-1.1,1.2-1.2
		c2.8-0.4,4.9-2.8,4.9-5.7c0-2.8-2.1-5.3-4.9-5.7c-0.6-0.1-1.1-0.5-1.2-1.1c-2.9-8.6-11-14.4-20.1-14.4c-9.2,0-17.2,5.8-20.1,14.5
		c-0.1,0.6-0.6,1-1.2,1.1c-2.8,0.4-4.9,2.8-4.9,5.7c0,2.8,2.1,5.3,4.9,5.7C17.4,43.8,17.9,44.3,18,45C18,44.9,18,45,18,45z M38,62.1
		c-10.1,0-19.1-6.3-22.6-15.7C11.7,45.4,9,42,9,38c0-3.9,2.7-7.3,6.4-8.3C18.9,20.3,27.9,14,38,14c10.1,0,19.1,6.3,22.6,15.7
		c3.7,0.9,6.4,4.4,6.4,8.3c0,3.9-2.7,7.3-6.4,8.3C57.1,55.8,48.1,62.1,38,62.1z"/>
</g>
</svg>
