<?xml version="1.0" encoding="utf-8"?>
<!-- Generator: Adobe Illustrator 26.0.1, SVG Export Plug-In . SVG Version: 6.00 Build 0)  -->
<svg version="1.1" id="Layer_1" xmlns="http://www.w3.org/2000/svg" xmlns:xlink="http://www.w3.org/1999/xlink" x="0px" y="0px"
	 viewBox="0 0 76 76" style="enable-background:new 0 0 76 76;" xml:space="preserve">
<style type="text/css">
	.st0{clip-path:url(#SVGID_00000073687400904626593210000017213349084280569216_);}
	.st1{fill:#F2FEDA;enable-background:new    ;}
	.st2{fill-rule:evenodd;clip-rule:evenodd;fill:#0A3B70;}
	.st3{fill:#FFFFFF;filter:url(#Adobe_OpacityMaskFilter);}
	.st4{mask:url(#mask0_662_6832_00000091735283802624653560000016442652710222623167_);}
	.st5{fill:#FFFFFF;filter:url(#Adobe_OpacityMaskFilter_00000127760253836190246610000002517172160184139454_);}
	.st6{mask:url(#mask1_662_6832_00000114057470199728245740000011609414411342116271_);}
</style>
<g>
	<defs>
		<rect id="SVGID_1_" width="76" height="76"/>
	</defs>
	<clipPath id="SVGID_00000183959894155498647230000017946662628767627410_">
		<use xlink:href="#SVGID_1_"  style="overflow:visible;"/>
	</clipPath>
	<g style="clip-path:url(#SVGID_00000183959894155498647230000017946662628767627410_);">
		<rect x="46.2" y="5.2" transform="matrix(0.7071 -0.7071 0.7071 0.7071 4.6863 46.6691)" class="st1" width="25" height="25"/>
		<path class="st2" d="M38.2,53.8c-0.8,0-1.4-0.6-1.4-1.4V24.3c0-0.8,0.6-1.4,1.4-1.4s1.4,0.6,1.4,1.4v28.1
			C39.5,53.2,38.9,53.8,38.2,53.8z"/>
		<path class="st2" d="M38.2,50.9c-3.1,0-5.8-1.7-7-4.2c-0.3-0.7,0-1.5,0.6-1.8c0.7-0.3,1.5,0,1.8,0.6c0.8,1.6,2.6,2.6,4.6,2.6
			c0.8,0,1.4,0.6,1.4,1.4C39.5,50.3,38.9,50.9,38.2,50.9z"/>
		<path class="st2" d="M38.2,50.9c-0.8,0-1.4-0.6-1.4-1.4s0.6-1.4,1.4-1.4c2.7,0,4.9-1.9,4.9-4.2s-2.2-4.2-4.9-4.2
			c-4.2,0-7.7-3.1-7.7-7c0-3.8,3.4-7,7.7-7c0.8,0,1.4,0.6,1.4,1.4c0,0.8-0.6,1.4-1.4,1.4c-2.7,0-4.9,1.9-4.9,4.2
			c0,2.3,2.2,4.2,4.9,4.2c4.2,0,7.7,3.1,7.7,7C45.8,47.8,42.4,50.9,38.2,50.9z"/>
		<path class="st2" d="M43.2,30.7c-0.4,0-0.8-0.2-1-0.5c-0.9-1.1-2.4-1.8-4-1.8c-0.8,0-1.4-0.6-1.4-1.4c0-0.8,0.6-1.4,1.4-1.4
			c2.4,0,4.7,1,6.1,2.8c0.5,0.6,0.4,1.4-0.2,1.9C43.8,30.6,43.5,30.7,43.2,30.7z"/>
		<defs>
			<filter id="Adobe_OpacityMaskFilter" filterUnits="userSpaceOnUse" x="9.5" y="17.7" width="10.7" height="41.3">
				<feColorMatrix  type="matrix" values="1 0 0 0 0  0 1 0 0 0  0 0 1 0 0  0 0 0 1 0"/>
			</filter>
		</defs>
		
			<mask maskUnits="userSpaceOnUse" x="9.5" y="17.7" width="10.7" height="41.3" id="mask0_662_6832_00000091735283802624653560000016442652710222623167_">
			<path class="st3" d="M9.5,17.7h10.7V59H9.5V17.7z"/>
		</mask>
		<g class="st4">
			<path class="st2" d="M18.9,59c-0.3,0-0.7-0.1-1-0.4C12.5,53.2,9.5,46,9.5,38.3c0-7.7,3-14.8,8.4-20.3c0.5-0.5,1.4-0.5,1.9,0
				c0.5,0.5,0.5,1.4,0,1.9c-4.9,4.9-7.6,11.4-7.6,18.3c0,6.9,2.7,13.4,7.6,18.3c0.5,0.5,0.5,1.4,0,1.9C19.6,58.9,19.2,59,18.9,59z"
				/>
		</g>
		<defs>
			
				<filter id="Adobe_OpacityMaskFilter_00000133500731651603542530000016805644183077993896_" filterUnits="userSpaceOnUse" x="56.1" y="17.7" width="10.7" height="41.3">
				<feColorMatrix  type="matrix" values="1 0 0 0 0  0 1 0 0 0  0 0 1 0 0  0 0 0 1 0"/>
			</filter>
		</defs>
		
			<mask maskUnits="userSpaceOnUse" x="56.1" y="17.7" width="10.7" height="41.3" id="mask1_662_6832_00000114057470199728245740000011609414411342116271_">
			<path style="fill:#FFFFFF;filter:url(#Adobe_OpacityMaskFilter_00000133500731651603542530000016805644183077993896_);" d="
				M56.1,17.7h10.7V59H56.1V17.7z"/>
		</mask>
		<g class="st6">
			<path class="st2" d="M57.4,59c-0.3,0-0.7-0.1-1-0.4c-0.5-0.5-0.5-1.4,0-1.9c4.9-4.9,7.6-11.4,7.6-18.3c0-6.9-2.7-13.4-7.6-18.3
				c-0.5-0.5-0.5-1.4,0-1.9c0.5-0.5,1.4-0.5,1.9,0c5.4,5.4,8.4,12.6,8.4,20.3c0,7.7-3,14.8-8.4,20.3C58.1,58.9,57.8,59,57.4,59z"/>
		</g>
		<path class="st2" d="M24.6,53.2c-0.3,0-0.7-0.1-1-0.4c-3.9-3.9-6-9-6-14.5c0-5.5,2.1-10.6,6-14.5c0.5-0.5,1.4-0.5,1.9,0
			c0.5,0.5,0.5,1.4,0,1.9c-3.3,3.3-5.2,7.8-5.2,12.5c0,4.7,1.8,9.2,5.2,12.5c0.5,0.5,0.5,1.4,0,1.9C25.3,53.1,25,53.2,24.6,53.2z"/>
		<path class="st2" d="M51.7,53.2c-0.3,0-0.7-0.1-1-0.4c-0.5-0.5-0.5-1.4,0-1.9c3.3-3.3,5.2-7.8,5.2-12.5c0-4.7-1.8-9.2-5.2-12.5
			c-0.5-0.5-0.5-1.4,0-1.9c0.5-0.5,1.4-0.5,1.9,0c3.9,3.9,6,9,6,14.5c0,5.5-2.1,10.6-6,14.5C52.4,53.1,52,53.2,51.7,53.2z"/>
	</g>
</g>
</svg>
