<svg width="76" height="76" viewBox="0 0 76 76" fill="none" xmlns="http://www.w3.org/2000/svg">
<rect opacity="0.5" x="40" y="18.6777" width="25" height="25" transform="rotate(-45 40 18.6777)" fill="#FD8282"/>
<path fill-rule="evenodd" clip-rule="evenodd" d="M36.8257 66.9565C21.1344 66.9565 8.36914 54.1912 8.36914 38.5C8.36914 22.8087 21.1344 10.0435 36.8257 10.0435C49.8186 10.0435 61.151 18.8198 64.3866 31.3875C64.6176 32.2814 64.077 33.1953 63.1814 33.4263C62.3026 33.659 61.3753 33.1183 61.1426 32.2211C58.2902 21.1348 48.2903 13.3913 36.8257 13.3913C22.9807 13.3913 11.717 24.655 11.717 38.5C11.717 52.3449 22.9807 63.6087 36.8257 63.6087C50.6706 63.6087 61.9344 52.3449 61.9344 38.5C61.9344 37.5743 62.6826 36.8261 63.6083 36.8261C64.5339 36.8261 65.2822 37.5743 65.2822 38.5C65.2822 54.1912 52.5169 66.9565 36.8257 66.9565Z" fill="#0A3B70"/>
<path fill-rule="evenodd" clip-rule="evenodd" d="M62.7648 33.4782C62.5137 33.4782 62.2609 33.4213 62.0316 33.3075L53.0042 28.9051C52.1739 28.4983 51.8291 27.4973 52.2342 26.6671C52.6376 25.8385 53.6386 25.4887 54.4722 25.8971L61.9948 29.5663L65.6623 22.0437C66.0674 21.2135 67.0667 20.8653 67.9003 21.2737C68.7306 21.6788 69.0771 22.6815 68.6703 23.5118L64.268 32.5375C64.0738 32.9376 63.7289 33.2422 63.3088 33.3862C63.133 33.4481 62.9472 33.4782 62.7648 33.4782Z" fill="#0A3B70"/>
</svg>
