<?xml version="1.0" encoding="utf-8"?>
<!-- Generator: Adobe Illustrator 26.0.1, SVG Export Plug-In . SVG Version: 6.00 Build 0)  -->
<svg version="1.1" id="Layer_1" xmlns="http://www.w3.org/2000/svg" xmlns:xlink="http://www.w3.org/1999/xlink" x="0px" y="0px"
	 viewBox="0 0 109 105" style="enable-background:new 0 0 109 105;" xml:space="preserve">
<style type="text/css">
	.st0{fill:#DFFEAE;}
	.st1{fill-rule:evenodd;clip-rule:evenodd;fill:#0A3B70;}
	.st2{fill:#FFFFFF;filter:url(#Adobe_OpacityMaskFilter);}
	.st3{mask:url(#mask0_330_20932_00000082340627897955500970000011208774637160814007_);}
</style>
<rect x="61" class="st0" width="48" height="48"/>
<path class="st1" d="M58,64.3c-0.5,0-0.9-0.1-1.4-0.4c-1.1-0.8-1.3-2.2-0.6-3.3l11.7-16.8c0.8-1.1,2.2-1.3,3.3-0.6
	c1.1,0.8,1.3,2.2,0.6,3.3L60,63.3C59.5,63.9,58.8,64.3,58,64.3z"/>
<path class="st1" d="M51.4,65.4c-0.5,0-1-0.1-1.4-0.4l-10.6-7.6c-1.1-0.8-1.3-2.3-0.6-3.3c0.8-1.1,2.3-1.3,3.3-0.6l10.6,7.6
	c1.1,0.8,1.3,2.3,0.6,3.3C52.9,65.1,52.1,65.4,51.4,65.4z"/>
<path class="st1" d="M22.5,75.8c-0.5,0-0.9-0.1-1.4-0.4c-1.1-0.8-1.3-2.2-0.6-3.3l11.7-16.8c0.8-1.1,2.2-1.3,3.3-0.6
	c1.1,0.8,1.3,2.2,0.6,3.3L24.5,74.8C24,75.4,23.3,75.8,22.5,75.8z"/>
<path class="st1" d="M19.8,74.9c-1.3,0-2.4,1.1-2.4,2.4c0,1.3,1.1,2.4,2.4,2.4s2.4-1.1,2.4-2.4C22.2,76,21.1,74.9,19.8,74.9z
	 M19.8,84.5c-3.9,0-7.1-3.2-7.1-7.2c0-4,3.2-7.2,7.1-7.2c3.9,0,7.1,3.2,7.1,7.2C26.9,81.3,23.7,84.5,19.8,84.5z"/>
<path class="st1" d="M37,50.3c-1.3,0-2.4,1.1-2.4,2.4c0,1.3,1.1,2.4,2.4,2.4c1.3,0,2.4-1.1,2.4-2.4C39.3,51.4,38.3,50.3,37,50.3z
	 M37,59.9c-3.9,0-7.1-3.2-7.1-7.2s3.2-7.2,7.1-7.2s7.1,3.2,7.1,7.2S40.9,59.9,37,59.9z"/>
<path class="st1" d="M55.3,63.4c-1.3,0-2.4,1.1-2.4,2.4c0,1.3,1.1,2.4,2.4,2.4c1.3,0,2.4-1.1,2.4-2.4C57.7,64.5,56.6,63.4,55.3,63.4
	z M55.3,73c-3.9,0-7.1-3.2-7.1-7.2s3.2-7.2,7.1-7.2c3.9,0,7.1,3.2,7.1,7.2S59.2,73,55.3,73z"/>
<path class="st1" d="M72.5,38.8c-1.3,0-2.4,1.1-2.4,2.4c0,1.3,1.1,2.4,2.4,2.4s2.4-1.1,2.4-2.4C74.8,39.9,73.8,38.8,72.5,38.8z
	 M72.5,48.4c-3.9,0-7.1-3.2-7.1-7.2c0-4,3.2-7.2,7.1-7.2c3.9,0,7.1,3.2,7.1,7.2C79.6,45.1,76.4,48.4,72.5,48.4z"/>
<path class="st1" d="M48.7,84.4c4.1,9.5,13.3,15.5,23.6,15.5c10.3,0,19.5-6.1,23.6-15.5c-4.1-9.5-13.3-15.5-23.6-15.5
	C62,68.8,52.8,74.9,48.7,84.4z M72.3,104.7c-12.6,0-23.8-7.6-28.4-19.4c-0.2-0.6-0.2-1.2,0-1.8C48.5,71.7,59.7,64,72.3,64
	c12.6,0,23.8,7.6,28.4,19.4c0.2,0.6,0.2,1.2,0,1.8C96.1,97,84.9,104.7,72.3,104.7z"/>
<path class="st1" d="M72.3,77.2c-3.9,0-7.1,3.2-7.1,7.2s3.2,7.2,7.1,7.2c3.9,0,7.1-3.2,7.1-7.2S76.2,77.2,72.3,77.2z M72.3,96.3
	c-6.6,0-11.9-5.4-11.9-12s5.3-12,11.9-12c6.6,0,11.9,5.4,11.9,12S78.9,96.3,72.3,96.3z"/>
<defs>
	<filter id="Adobe_OpacityMaskFilter" filterUnits="userSpaceOnUse" x="0.9" y="21" width="90.5" height="76.5">
		<feColorMatrix  type="matrix" values="1 0 0 0 0  0 1 0 0 0  0 0 1 0 0  0 0 0 1 0"/>
	</filter>
</defs>
<mask maskUnits="userSpaceOnUse" x="0.9" y="21" width="90.5" height="76.5" id="mask0_330_20932_00000082340627897955500970000011208774637160814007_">
	<path class="st2" d="M0.9,21h90.5v76.5H0.9V21z"/>
</mask>
<g class="st3">
	<path class="st1" d="M53.6,97.5H3.3c-1.3,0-2.4-1.1-2.4-2.4V23.4c0-1.3,1.1-2.4,2.4-2.4H89c1.3,0,2.4,1.1,2.4,2.4v48.5
		c0,1.3-1.1,2.4-2.4,2.4c-1.3,0-2.4-1.1-2.4-2.4V25.8h-81v66.9h48c1.3,0,2.4,1.1,2.4,2.4C56,96.4,54.9,97.5,53.6,97.5z"/>
</g>
</svg>
